M48
; DRILL file {KiCad (5.99.0-8090-ga1d7a959f7)} date 11/03/21 17:46:49
; FORMAT={-:-/ absolute / inch / decimal}
; #@! TF.CreationDate,2021-11-03T17:46:49+00:00
; #@! TF.GenerationSoftware,Kicad,Pcbnew,(5.99.0-8090-ga1d7a959f7)
FMAT,2
INCH
T1C0.0157
T2C0.0354
T3C0.0394
T4C0.0469
T5C0.1260
%
G90
G05
T1
X2.8406Y-4.7933
X2.874Y-2.4016
X2.874Y-3.2087
X2.874Y-4.0157
X2.874Y-5.6299
X3.0591Y-4.7933
X3.5669Y-2.4016
X3.5669Y-3.2087
X3.5669Y-4.0157
X3.5669Y-4.8228
X3.5669Y-5.6299
X4.2598Y-2.4016
X4.2598Y-3.2087
X4.2598Y-4.0157
X4.2598Y-4.8228
X4.5945Y-3.1339
X4.7165Y-4.4882
X4.8189Y-4.4882
X4.9528Y-2.4016
X4.9528Y-3.2087
X4.9528Y-4.0157
X4.9528Y-4.8228
X5.2756Y-4.4488
X5.3543Y-4.4488
X5.4173Y-4.4488
X5.4921Y-3.685
X5.6457Y-2.4016
X5.6457Y-4.0157
X5.6693Y-2.8425
X5.7717Y-2.685
X6.0472Y-3.1535
X6.0472Y-3.2047
X6.0512Y-3.1063
X6.1929Y-4.4882
X6.3386Y-2.4016
X6.3386Y-3.2087
X6.3386Y-4.0157
X6.3386Y-4.8228
X6.3386Y-5.6299
T2
X2.7496Y-2.7559
X2.7496Y-3.0559
X2.7496Y-3.937
X2.7496Y-4.237
X3.1496Y-2.7559
X3.1496Y-3.0559
X3.1496Y-3.937
X3.1496Y-4.237
X3.7339Y-4.8228
X3.7339Y-5.1228
X4.1339Y-4.8228
X4.1339Y-5.1228
X5.7024Y-4.8228
X5.7024Y-5.1228
X6.1024Y-4.8228
X6.1024Y-5.1228
T3
X3.9711Y-2.5591
X4.0711Y-2.5591
X4.1711Y-2.5591
X4.2711Y-2.5591
X4.3711Y-2.5591
X4.4711Y-2.5591
X4.5711Y-2.5591
X4.6711Y-2.5591
X4.7711Y-2.5591
X4.8711Y-2.5591
X4.9711Y-2.5591
X5.0711Y-2.5591
X5.1711Y-2.5591
X5.2711Y-2.5591
X5.3711Y-2.5591
X5.4711Y-2.5591
X5.5711Y-2.5591
X5.6711Y-2.5591
X5.7711Y-2.5591
X5.8711Y-2.5591
T4
X4.4173Y-4.9921
X4.5173Y-4.9921
X4.6173Y-4.9921
X4.7173Y-4.9921
X4.8173Y-4.9921
X4.9173Y-4.9921
X5.0173Y-4.9921
X5.1173Y-4.9921
X5.2173Y-4.9921
X5.3173Y-4.9921
X5.4173Y-4.9921
T5
X2.7559Y-2.2835
X2.7559Y-5.748
X6.4567Y-2.2835
X6.4567Y-5.748
T0
M30
