%TF.GenerationSoftware,KiCad,Pcbnew,(5.99.0-8090-ga1d7a959f7)*%
%TF.CreationDate,2021-11-03T17:46:47+00:00*%
%TF.ProjectId,Front_Panel,46726f6e-745f-4506-916e-656c2e6b6963,rev?*%
%TF.SameCoordinates,Original*%
%TF.FileFunction,Legend,Bot*%
%TF.FilePolarity,Positive*%
%FSLAX46Y46*%
G04 Gerber Fmt 4.6, Leading zero omitted, Abs format (unit mm)*
G04 Created by KiCad (PCBNEW (5.99.0-8090-ga1d7a959f7)) date 2021-11-03 17:46:47*
%MOMM*%
%LPD*%
G01*
G04 APERTURE LIST*
%ADD10C,0.150000*%
%ADD11C,0.120000*%
G04 APERTURE END LIST*
D10*
X138361904Y-71752380D02*
X138361904Y-70752380D01*
X138361904Y-71228571D02*
X137790476Y-71228571D01*
X137790476Y-71752380D02*
X137790476Y-70752380D01*
X137314285Y-71752380D02*
X137314285Y-71085714D01*
X137314285Y-70752380D02*
X137361904Y-70800000D01*
X137314285Y-70847619D01*
X137266666Y-70800000D01*
X137314285Y-70752380D01*
X137314285Y-70847619D01*
X136504761Y-71228571D02*
X136838095Y-71228571D01*
X136838095Y-71752380D02*
X136838095Y-70752380D01*
X136361904Y-70752380D01*
X135980952Y-71752380D02*
X135980952Y-71085714D01*
X135980952Y-70752380D02*
X136028571Y-70800000D01*
X135980952Y-70847619D01*
X135933333Y-70800000D01*
X135980952Y-70752380D01*
X135980952Y-70847619D01*
X135600000Y-71085714D02*
X135361904Y-71752380D01*
X135123809Y-71085714D01*
X134361904Y-71704761D02*
X134457142Y-71752380D01*
X134647619Y-71752380D01*
X134742857Y-71704761D01*
X134790476Y-71609523D01*
X134790476Y-71228571D01*
X134742857Y-71133333D01*
X134647619Y-71085714D01*
X134457142Y-71085714D01*
X134361904Y-71133333D01*
X134314285Y-71228571D01*
X134314285Y-71323809D01*
X134790476Y-71419047D01*
X133123809Y-70752380D02*
X133123809Y-71561904D01*
X133076190Y-71657142D01*
X133028571Y-71704761D01*
X132933333Y-71752380D01*
X132742857Y-71752380D01*
X132647619Y-71704761D01*
X132600000Y-71657142D01*
X132552380Y-71561904D01*
X132552380Y-70752380D01*
X132076190Y-71085714D02*
X132076190Y-71752380D01*
X132076190Y-71180952D02*
X132028571Y-71133333D01*
X131933333Y-71085714D01*
X131790476Y-71085714D01*
X131695238Y-71133333D01*
X131647619Y-71228571D01*
X131647619Y-71752380D01*
X131171428Y-71752380D02*
X131171428Y-71085714D01*
X131171428Y-71180952D02*
X131123809Y-71133333D01*
X131028571Y-71085714D01*
X130885714Y-71085714D01*
X130790476Y-71133333D01*
X130742857Y-71228571D01*
X130742857Y-71752380D01*
X130742857Y-71228571D02*
X130695238Y-71133333D01*
X130600000Y-71085714D01*
X130457142Y-71085714D01*
X130361904Y-71133333D01*
X130314285Y-71228571D01*
X130314285Y-71752380D01*
X129409523Y-71752380D02*
X129409523Y-71228571D01*
X129457142Y-71133333D01*
X129552380Y-71085714D01*
X129742857Y-71085714D01*
X129838095Y-71133333D01*
X129409523Y-71704761D02*
X129504761Y-71752380D01*
X129742857Y-71752380D01*
X129838095Y-71704761D01*
X129885714Y-71609523D01*
X129885714Y-71514285D01*
X129838095Y-71419047D01*
X129742857Y-71371428D01*
X129504761Y-71371428D01*
X129409523Y-71323809D01*
X129076190Y-71085714D02*
X128695238Y-71085714D01*
X128933333Y-70752380D02*
X128933333Y-71609523D01*
X128885714Y-71704761D01*
X128790476Y-71752380D01*
X128695238Y-71752380D01*
X127933333Y-71704761D02*
X128028571Y-71752380D01*
X128219047Y-71752380D01*
X128314285Y-71704761D01*
X128361904Y-71657142D01*
X128409523Y-71561904D01*
X128409523Y-71276190D01*
X128361904Y-71180952D01*
X128314285Y-71133333D01*
X128219047Y-71085714D01*
X128028571Y-71085714D01*
X127933333Y-71133333D01*
X127504761Y-71752380D02*
X127504761Y-70752380D01*
X127076190Y-71752380D02*
X127076190Y-71228571D01*
X127123809Y-71133333D01*
X127219047Y-71085714D01*
X127361904Y-71085714D01*
X127457142Y-71133333D01*
X127504761Y-71180952D01*
X126219047Y-71704761D02*
X126314285Y-71752380D01*
X126504761Y-71752380D01*
X126600000Y-71704761D01*
X126647619Y-71609523D01*
X126647619Y-71228571D01*
X126600000Y-71133333D01*
X126504761Y-71085714D01*
X126314285Y-71085714D01*
X126219047Y-71133333D01*
X126171428Y-71228571D01*
X126171428Y-71323809D01*
X126647619Y-71419047D01*
X125314285Y-71752380D02*
X125314285Y-70752380D01*
X125314285Y-71704761D02*
X125409523Y-71752380D01*
X125600000Y-71752380D01*
X125695238Y-71704761D01*
X125742857Y-71657142D01*
X125790476Y-71561904D01*
X125790476Y-71276190D01*
X125742857Y-71180952D01*
X125695238Y-71133333D01*
X125600000Y-71085714D01*
X125409523Y-71085714D01*
X125314285Y-71133333D01*
X123742857Y-71228571D02*
X124076190Y-71228571D01*
X124076190Y-71752380D02*
X124076190Y-70752380D01*
X123600000Y-70752380D01*
X123219047Y-71752380D02*
X123219047Y-71085714D01*
X123219047Y-71276190D02*
X123171428Y-71180952D01*
X123123809Y-71133333D01*
X123028571Y-71085714D01*
X122933333Y-71085714D01*
X122457142Y-71752380D02*
X122552380Y-71704761D01*
X122600000Y-71657142D01*
X122647619Y-71561904D01*
X122647619Y-71276190D01*
X122600000Y-71180952D01*
X122552380Y-71133333D01*
X122457142Y-71085714D01*
X122314285Y-71085714D01*
X122219047Y-71133333D01*
X122171428Y-71180952D01*
X122123809Y-71276190D01*
X122123809Y-71561904D01*
X122171428Y-71657142D01*
X122219047Y-71704761D01*
X122314285Y-71752380D01*
X122457142Y-71752380D01*
X121695238Y-71085714D02*
X121695238Y-71752380D01*
X121695238Y-71180952D02*
X121647619Y-71133333D01*
X121552380Y-71085714D01*
X121409523Y-71085714D01*
X121314285Y-71133333D01*
X121266666Y-71228571D01*
X121266666Y-71752380D01*
X120933333Y-71085714D02*
X120552380Y-71085714D01*
X120790476Y-70752380D02*
X120790476Y-71609523D01*
X120742857Y-71704761D01*
X120647619Y-71752380D01*
X120552380Y-71752380D01*
X119457142Y-71752380D02*
X119457142Y-70752380D01*
X119076190Y-70752380D01*
X118980952Y-70800000D01*
X118933333Y-70847619D01*
X118885714Y-70942857D01*
X118885714Y-71085714D01*
X118933333Y-71180952D01*
X118980952Y-71228571D01*
X119076190Y-71276190D01*
X119457142Y-71276190D01*
X118028571Y-71752380D02*
X118028571Y-71228571D01*
X118076190Y-71133333D01*
X118171428Y-71085714D01*
X118361904Y-71085714D01*
X118457142Y-71133333D01*
X118028571Y-71704761D02*
X118123809Y-71752380D01*
X118361904Y-71752380D01*
X118457142Y-71704761D01*
X118504761Y-71609523D01*
X118504761Y-71514285D01*
X118457142Y-71419047D01*
X118361904Y-71371428D01*
X118123809Y-71371428D01*
X118028571Y-71323809D01*
X117552380Y-71085714D02*
X117552380Y-71752380D01*
X117552380Y-71180952D02*
X117504761Y-71133333D01*
X117409523Y-71085714D01*
X117266666Y-71085714D01*
X117171428Y-71133333D01*
X117123809Y-71228571D01*
X117123809Y-71752380D01*
X116266666Y-71704761D02*
X116361904Y-71752380D01*
X116552380Y-71752380D01*
X116647619Y-71704761D01*
X116695238Y-71609523D01*
X116695238Y-71228571D01*
X116647619Y-71133333D01*
X116552380Y-71085714D01*
X116361904Y-71085714D01*
X116266666Y-71133333D01*
X116219047Y-71228571D01*
X116219047Y-71323809D01*
X116695238Y-71419047D01*
X115647619Y-71752380D02*
X115742857Y-71704761D01*
X115790476Y-71609523D01*
X115790476Y-70752380D01*
X114600000Y-71085714D02*
X114361904Y-71752380D01*
X114123809Y-71085714D01*
X113219047Y-71752380D02*
X113790476Y-71752380D01*
X113504761Y-71752380D02*
X113504761Y-70752380D01*
X113600000Y-70895238D01*
X113695238Y-70990476D01*
X113790476Y-71038095D01*
X112790476Y-71657142D02*
X112742857Y-71704761D01*
X112790476Y-71752380D01*
X112838095Y-71704761D01*
X112790476Y-71657142D01*
X112790476Y-71752380D01*
X112123809Y-70752380D02*
X112028571Y-70752380D01*
X111933333Y-70800000D01*
X111885714Y-70847619D01*
X111838095Y-70942857D01*
X111790476Y-71133333D01*
X111790476Y-71371428D01*
X111838095Y-71561904D01*
X111885714Y-71657142D01*
X111933333Y-71704761D01*
X112028571Y-71752380D01*
X112123809Y-71752380D01*
X112219047Y-71704761D01*
X112266666Y-71657142D01*
X112314285Y-71561904D01*
X112361904Y-71371428D01*
X112361904Y-71133333D01*
X112314285Y-70942857D01*
X112266666Y-70847619D01*
X112219047Y-70800000D01*
X112123809Y-70752380D01*
%TO.C,C4*%
X150166666Y-129057142D02*
X150214285Y-129104761D01*
X150357142Y-129152380D01*
X150452380Y-129152380D01*
X150595238Y-129104761D01*
X150690476Y-129009523D01*
X150738095Y-128914285D01*
X150785714Y-128723809D01*
X150785714Y-128580952D01*
X150738095Y-128390476D01*
X150690476Y-128295238D01*
X150595238Y-128200000D01*
X150452380Y-128152380D01*
X150357142Y-128152380D01*
X150214285Y-128200000D01*
X150166666Y-128247619D01*
X149309523Y-128485714D02*
X149309523Y-129152380D01*
X149547619Y-128104761D02*
X149785714Y-128819047D01*
X149166666Y-128819047D01*
%TO.C,R8*%
X150166666Y-121522380D02*
X150500000Y-121046190D01*
X150738095Y-121522380D02*
X150738095Y-120522380D01*
X150357142Y-120522380D01*
X150261904Y-120570000D01*
X150214285Y-120617619D01*
X150166666Y-120712857D01*
X150166666Y-120855714D01*
X150214285Y-120950952D01*
X150261904Y-120998571D01*
X150357142Y-121046190D01*
X150738095Y-121046190D01*
X149595238Y-120950952D02*
X149690476Y-120903333D01*
X149738095Y-120855714D01*
X149785714Y-120760476D01*
X149785714Y-120712857D01*
X149738095Y-120617619D01*
X149690476Y-120570000D01*
X149595238Y-120522380D01*
X149404761Y-120522380D01*
X149309523Y-120570000D01*
X149261904Y-120617619D01*
X149214285Y-120712857D01*
X149214285Y-120760476D01*
X149261904Y-120855714D01*
X149309523Y-120903333D01*
X149404761Y-120950952D01*
X149595238Y-120950952D01*
X149690476Y-120998571D01*
X149738095Y-121046190D01*
X149785714Y-121141428D01*
X149785714Y-121331904D01*
X149738095Y-121427142D01*
X149690476Y-121474761D01*
X149595238Y-121522380D01*
X149404761Y-121522380D01*
X149309523Y-121474761D01*
X149261904Y-121427142D01*
X149214285Y-121331904D01*
X149214285Y-121141428D01*
X149261904Y-121046190D01*
X149309523Y-120998571D01*
X149404761Y-120950952D01*
%TO.C,C3*%
X100166666Y-129057142D02*
X100214285Y-129104761D01*
X100357142Y-129152380D01*
X100452380Y-129152380D01*
X100595238Y-129104761D01*
X100690476Y-129009523D01*
X100738095Y-128914285D01*
X100785714Y-128723809D01*
X100785714Y-128580952D01*
X100738095Y-128390476D01*
X100690476Y-128295238D01*
X100595238Y-128200000D01*
X100452380Y-128152380D01*
X100357142Y-128152380D01*
X100214285Y-128200000D01*
X100166666Y-128247619D01*
X99833333Y-128152380D02*
X99214285Y-128152380D01*
X99547619Y-128533333D01*
X99404761Y-128533333D01*
X99309523Y-128580952D01*
X99261904Y-128628571D01*
X99214285Y-128723809D01*
X99214285Y-128961904D01*
X99261904Y-129057142D01*
X99309523Y-129104761D01*
X99404761Y-129152380D01*
X99690476Y-129152380D01*
X99785714Y-129104761D01*
X99833333Y-129057142D01*
%TO.C,R2*%
X143966666Y-74822380D02*
X144300000Y-74346190D01*
X144538095Y-74822380D02*
X144538095Y-73822380D01*
X144157142Y-73822380D01*
X144061904Y-73870000D01*
X144014285Y-73917619D01*
X143966666Y-74012857D01*
X143966666Y-74155714D01*
X144014285Y-74250952D01*
X144061904Y-74298571D01*
X144157142Y-74346190D01*
X144538095Y-74346190D01*
X143585714Y-73917619D02*
X143538095Y-73870000D01*
X143442857Y-73822380D01*
X143204761Y-73822380D01*
X143109523Y-73870000D01*
X143061904Y-73917619D01*
X143014285Y-74012857D01*
X143014285Y-74108095D01*
X143061904Y-74250952D01*
X143633333Y-74822380D01*
X143014285Y-74822380D01*
%TO.C,R9*%
X100166666Y-133582380D02*
X100500000Y-133106190D01*
X100738095Y-133582380D02*
X100738095Y-132582380D01*
X100357142Y-132582380D01*
X100261904Y-132630000D01*
X100214285Y-132677619D01*
X100166666Y-132772857D01*
X100166666Y-132915714D01*
X100214285Y-133010952D01*
X100261904Y-133058571D01*
X100357142Y-133106190D01*
X100738095Y-133106190D01*
X99690476Y-133582380D02*
X99500000Y-133582380D01*
X99404761Y-133534761D01*
X99357142Y-133487142D01*
X99261904Y-133344285D01*
X99214285Y-133153809D01*
X99214285Y-132772857D01*
X99261904Y-132677619D01*
X99309523Y-132630000D01*
X99404761Y-132582380D01*
X99595238Y-132582380D01*
X99690476Y-132630000D01*
X99738095Y-132677619D01*
X99785714Y-132772857D01*
X99785714Y-133010952D01*
X99738095Y-133106190D01*
X99690476Y-133153809D01*
X99595238Y-133201428D01*
X99404761Y-133201428D01*
X99309523Y-133153809D01*
X99261904Y-133106190D01*
X99214285Y-133010952D01*
%TO.C,R6*%
X74966666Y-99022380D02*
X75300000Y-98546190D01*
X75538095Y-99022380D02*
X75538095Y-98022380D01*
X75157142Y-98022380D01*
X75061904Y-98070000D01*
X75014285Y-98117619D01*
X74966666Y-98212857D01*
X74966666Y-98355714D01*
X75014285Y-98450952D01*
X75061904Y-98498571D01*
X75157142Y-98546190D01*
X75538095Y-98546190D01*
X74109523Y-98022380D02*
X74300000Y-98022380D01*
X74395238Y-98070000D01*
X74442857Y-98117619D01*
X74538095Y-98260476D01*
X74585714Y-98450952D01*
X74585714Y-98831904D01*
X74538095Y-98927142D01*
X74490476Y-98974761D01*
X74395238Y-99022380D01*
X74204761Y-99022380D01*
X74109523Y-98974761D01*
X74061904Y-98927142D01*
X74014285Y-98831904D01*
X74014285Y-98593809D01*
X74061904Y-98498571D01*
X74109523Y-98450952D01*
X74204761Y-98403333D01*
X74395238Y-98403333D01*
X74490476Y-98450952D01*
X74538095Y-98498571D01*
X74585714Y-98593809D01*
%TO.C,R1*%
X80166666Y-123632380D02*
X80500000Y-123156190D01*
X80738095Y-123632380D02*
X80738095Y-122632380D01*
X80357142Y-122632380D01*
X80261904Y-122680000D01*
X80214285Y-122727619D01*
X80166666Y-122822857D01*
X80166666Y-122965714D01*
X80214285Y-123060952D01*
X80261904Y-123108571D01*
X80357142Y-123156190D01*
X80738095Y-123156190D01*
X79214285Y-123632380D02*
X79785714Y-123632380D01*
X79500000Y-123632380D02*
X79500000Y-122632380D01*
X79595238Y-122775238D01*
X79690476Y-122870476D01*
X79785714Y-122918095D01*
%TO.C,U1*%
X145752380Y-87738095D02*
X146561904Y-87738095D01*
X146657142Y-87785714D01*
X146704761Y-87833333D01*
X146752380Y-87928571D01*
X146752380Y-88119047D01*
X146704761Y-88214285D01*
X146657142Y-88261904D01*
X146561904Y-88309523D01*
X145752380Y-88309523D01*
X146752380Y-89309523D02*
X146752380Y-88738095D01*
X146752380Y-89023809D02*
X145752380Y-89023809D01*
X145895238Y-88928571D01*
X145990476Y-88833333D01*
X146038095Y-88738095D01*
%TO.C,C2*%
X143657142Y-95733333D02*
X143704761Y-95685714D01*
X143752380Y-95542857D01*
X143752380Y-95447619D01*
X143704761Y-95304761D01*
X143609523Y-95209523D01*
X143514285Y-95161904D01*
X143323809Y-95114285D01*
X143180952Y-95114285D01*
X142990476Y-95161904D01*
X142895238Y-95209523D01*
X142800000Y-95304761D01*
X142752380Y-95447619D01*
X142752380Y-95542857D01*
X142800000Y-95685714D01*
X142847619Y-95733333D01*
X142847619Y-96114285D02*
X142800000Y-96161904D01*
X142752380Y-96257142D01*
X142752380Y-96495238D01*
X142800000Y-96590476D01*
X142847619Y-96638095D01*
X142942857Y-96685714D01*
X143038095Y-96685714D01*
X143180952Y-96638095D01*
X143752380Y-96066666D01*
X143752380Y-96685714D01*
%TO.C,J1*%
X124933333Y-122132380D02*
X124933333Y-122846666D01*
X124980952Y-122989523D01*
X125076190Y-123084761D01*
X125219047Y-123132380D01*
X125314285Y-123132380D01*
X123933333Y-123132380D02*
X124504761Y-123132380D01*
X124219047Y-123132380D02*
X124219047Y-122132380D01*
X124314285Y-122275238D01*
X124409523Y-122370476D01*
X124504761Y-122418095D01*
%TO.C,U2*%
X149761904Y-75552380D02*
X149761904Y-76361904D01*
X149714285Y-76457142D01*
X149666666Y-76504761D01*
X149571428Y-76552380D01*
X149380952Y-76552380D01*
X149285714Y-76504761D01*
X149238095Y-76457142D01*
X149190476Y-76361904D01*
X149190476Y-75552380D01*
X148761904Y-75647619D02*
X148714285Y-75600000D01*
X148619047Y-75552380D01*
X148380952Y-75552380D01*
X148285714Y-75600000D01*
X148238095Y-75647619D01*
X148190476Y-75742857D01*
X148190476Y-75838095D01*
X148238095Y-75980952D01*
X148809523Y-76552380D01*
X148190476Y-76552380D01*
%TO.C,R5*%
X75166666Y-69022380D02*
X75500000Y-68546190D01*
X75738095Y-69022380D02*
X75738095Y-68022380D01*
X75357142Y-68022380D01*
X75261904Y-68070000D01*
X75214285Y-68117619D01*
X75166666Y-68212857D01*
X75166666Y-68355714D01*
X75214285Y-68450952D01*
X75261904Y-68498571D01*
X75357142Y-68546190D01*
X75738095Y-68546190D01*
X74261904Y-68022380D02*
X74738095Y-68022380D01*
X74785714Y-68498571D01*
X74738095Y-68450952D01*
X74642857Y-68403333D01*
X74404761Y-68403333D01*
X74309523Y-68450952D01*
X74261904Y-68498571D01*
X74214285Y-68593809D01*
X74214285Y-68831904D01*
X74261904Y-68927142D01*
X74309523Y-68974761D01*
X74404761Y-69022380D01*
X74642857Y-69022380D01*
X74738095Y-68974761D01*
X74785714Y-68927142D01*
%TO.C,R7*%
X100166666Y-121522380D02*
X100500000Y-121046190D01*
X100738095Y-121522380D02*
X100738095Y-120522380D01*
X100357142Y-120522380D01*
X100261904Y-120570000D01*
X100214285Y-120617619D01*
X100166666Y-120712857D01*
X100166666Y-120855714D01*
X100214285Y-120950952D01*
X100261904Y-120998571D01*
X100357142Y-121046190D01*
X100738095Y-121046190D01*
X99833333Y-120522380D02*
X99166666Y-120522380D01*
X99595238Y-121522380D01*
%TO.C,R10*%
X150642857Y-133582380D02*
X150976190Y-133106190D01*
X151214285Y-133582380D02*
X151214285Y-132582380D01*
X150833333Y-132582380D01*
X150738095Y-132630000D01*
X150690476Y-132677619D01*
X150642857Y-132772857D01*
X150642857Y-132915714D01*
X150690476Y-133010952D01*
X150738095Y-133058571D01*
X150833333Y-133106190D01*
X151214285Y-133106190D01*
X149690476Y-133582380D02*
X150261904Y-133582380D01*
X149976190Y-133582380D02*
X149976190Y-132582380D01*
X150071428Y-132725238D01*
X150166666Y-132820476D01*
X150261904Y-132868095D01*
X149071428Y-132582380D02*
X148976190Y-132582380D01*
X148880952Y-132630000D01*
X148833333Y-132677619D01*
X148785714Y-132772857D01*
X148738095Y-132963333D01*
X148738095Y-133201428D01*
X148785714Y-133391904D01*
X148833333Y-133487142D01*
X148880952Y-133534761D01*
X148976190Y-133582380D01*
X149071428Y-133582380D01*
X149166666Y-133534761D01*
X149214285Y-133487142D01*
X149261904Y-133391904D01*
X149309523Y-133201428D01*
X149309523Y-132963333D01*
X149261904Y-132772857D01*
X149214285Y-132677619D01*
X149166666Y-132630000D01*
X149071428Y-132582380D01*
%TO.C,R4*%
X144882380Y-79933333D02*
X144406190Y-79600000D01*
X144882380Y-79361904D02*
X143882380Y-79361904D01*
X143882380Y-79742857D01*
X143930000Y-79838095D01*
X143977619Y-79885714D01*
X144072857Y-79933333D01*
X144215714Y-79933333D01*
X144310952Y-79885714D01*
X144358571Y-79838095D01*
X144406190Y-79742857D01*
X144406190Y-79361904D01*
X144215714Y-80790476D02*
X144882380Y-80790476D01*
X143834761Y-80552380D02*
X144549047Y-80314285D01*
X144549047Y-80933333D01*
%TO.C,C1*%
X138427142Y-95733333D02*
X138474761Y-95685714D01*
X138522380Y-95542857D01*
X138522380Y-95447619D01*
X138474761Y-95304761D01*
X138379523Y-95209523D01*
X138284285Y-95161904D01*
X138093809Y-95114285D01*
X137950952Y-95114285D01*
X137760476Y-95161904D01*
X137665238Y-95209523D01*
X137570000Y-95304761D01*
X137522380Y-95447619D01*
X137522380Y-95542857D01*
X137570000Y-95685714D01*
X137617619Y-95733333D01*
X138522380Y-96685714D02*
X138522380Y-96114285D01*
X138522380Y-96400000D02*
X137522380Y-96400000D01*
X137665238Y-96304761D01*
X137760476Y-96209523D01*
X137808095Y-96114285D01*
%TO.C,R3*%
X141882380Y-79133333D02*
X141406190Y-78800000D01*
X141882380Y-78561904D02*
X140882380Y-78561904D01*
X140882380Y-78942857D01*
X140930000Y-79038095D01*
X140977619Y-79085714D01*
X141072857Y-79133333D01*
X141215714Y-79133333D01*
X141310952Y-79085714D01*
X141358571Y-79038095D01*
X141406190Y-78942857D01*
X141406190Y-78561904D01*
X140882380Y-79466666D02*
X140882380Y-80085714D01*
X141263333Y-79752380D01*
X141263333Y-79895238D01*
X141310952Y-79990476D01*
X141358571Y-80038095D01*
X141453809Y-80085714D01*
X141691904Y-80085714D01*
X141787142Y-80038095D01*
X141834761Y-79990476D01*
X141882380Y-79895238D01*
X141882380Y-79609523D01*
X141834761Y-79514285D01*
X141787142Y-79466666D01*
D11*
%TO.C,C4*%
X149859420Y-130610000D02*
X150140580Y-130610000D01*
X149859420Y-129590000D02*
X150140580Y-129590000D01*
%TO.C,R8*%
X150237258Y-123022500D02*
X149762742Y-123022500D01*
X150237258Y-121977500D02*
X149762742Y-121977500D01*
%TO.C,C3*%
X99859420Y-130610000D02*
X100140580Y-130610000D01*
X99859420Y-129590000D02*
X100140580Y-129590000D01*
%TO.C,R2*%
X144037258Y-76322500D02*
X143562742Y-76322500D01*
X144037258Y-75277500D02*
X143562742Y-75277500D01*
%TO.C,R9*%
X99762742Y-132222500D02*
X100237258Y-132222500D01*
X99762742Y-131177500D02*
X100237258Y-131177500D01*
%TO.C,R6*%
X75037258Y-100522500D02*
X74562742Y-100522500D01*
X75037258Y-99477500D02*
X74562742Y-99477500D01*
%TO.C,R1*%
X79762742Y-121227500D02*
X80237258Y-121227500D01*
X79762742Y-122272500D02*
X80237258Y-122272500D01*
%TO.C,U1*%
X145210000Y-86590000D02*
X143950000Y-86590000D01*
X145210000Y-92600000D02*
X145210000Y-86590000D01*
X138390000Y-86590000D02*
X139650000Y-86590000D01*
X138390000Y-90350000D02*
X138390000Y-86590000D01*
%TO.C,C2*%
X141290000Y-95759420D02*
X141290000Y-96040580D01*
X142310000Y-95759420D02*
X142310000Y-96040580D01*
%TO.C,J1*%
X130780000Y-124370000D02*
X129180000Y-124370000D01*
X113000000Y-123770000D02*
X113000000Y-124370000D01*
X132520000Y-128790000D02*
X132520000Y-129790000D01*
X112450000Y-129790000D02*
X112450000Y-128790000D01*
X123160000Y-123770000D02*
X123160000Y-124370000D01*
X116480000Y-124370000D02*
X116480000Y-123770000D01*
X137600000Y-128790000D02*
X132520000Y-128790000D01*
X112200000Y-128790000D02*
X112450000Y-128260000D01*
X128240000Y-123770000D02*
X128240000Y-124370000D01*
X117280000Y-128790000D02*
X117280000Y-129790000D01*
X133320000Y-123770000D02*
X133320000Y-124370000D01*
X123160000Y-124370000D02*
X121560000Y-124370000D01*
X121560000Y-124370000D02*
X121560000Y-123770000D01*
X118080000Y-124370000D02*
X116480000Y-124370000D01*
X110820000Y-129790000D02*
X110820000Y-123770000D01*
X131720000Y-124370000D02*
X131720000Y-123770000D01*
X137600000Y-129790000D02*
X137600000Y-128790000D01*
X125700000Y-124370000D02*
X124100000Y-124370000D01*
X119020000Y-124370000D02*
X119020000Y-123770000D01*
X138980000Y-129790000D02*
X110820000Y-129790000D01*
X110820000Y-123770000D02*
X138980000Y-123770000D01*
X132520000Y-128260000D02*
X132520000Y-128790000D01*
X115540000Y-124370000D02*
X113940000Y-124370000D01*
X125700000Y-123770000D02*
X125700000Y-124370000D01*
X112450000Y-128260000D02*
X117280000Y-128260000D01*
X128240000Y-124370000D02*
X126640000Y-124370000D01*
X137350000Y-128260000D02*
X132520000Y-128260000D01*
X126640000Y-124370000D02*
X126640000Y-123770000D01*
X138400000Y-124370000D02*
X136800000Y-124370000D01*
X111400000Y-124370000D02*
X111400000Y-123770000D01*
X138980000Y-123770000D02*
X138980000Y-129790000D01*
X137350000Y-129790000D02*
X137350000Y-128790000D01*
X120620000Y-124370000D02*
X119020000Y-124370000D01*
X117280000Y-128260000D02*
X117280000Y-128790000D01*
X133320000Y-124370000D02*
X131720000Y-124370000D01*
X138400000Y-123770000D02*
X138400000Y-124370000D01*
X112200000Y-128790000D02*
X117280000Y-128790000D01*
X112200000Y-129790000D02*
X112200000Y-128790000D01*
X118080000Y-123770000D02*
X118080000Y-124370000D01*
X137600000Y-128790000D02*
X137350000Y-128260000D01*
X113940000Y-124370000D02*
X113940000Y-123770000D01*
X135860000Y-123770000D02*
X135860000Y-124370000D01*
X129180000Y-124370000D02*
X129180000Y-123770000D01*
X134260000Y-124370000D02*
X134260000Y-123770000D01*
X113000000Y-124370000D02*
X111400000Y-124370000D01*
X139270000Y-124800000D02*
X139270000Y-128800000D01*
X120620000Y-123770000D02*
X120620000Y-124370000D01*
X136800000Y-124370000D02*
X136800000Y-123770000D01*
X135860000Y-124370000D02*
X134260000Y-124370000D01*
X124100000Y-124370000D02*
X124100000Y-123770000D01*
X115540000Y-123770000D02*
X115540000Y-124370000D01*
X130780000Y-123770000D02*
X130780000Y-124370000D01*
%TO.C,U2*%
X149000000Y-76940000D02*
X152450000Y-76940000D01*
X149000000Y-82060000D02*
X150950000Y-82060000D01*
X149000000Y-76940000D02*
X147050000Y-76940000D01*
X149000000Y-82060000D02*
X147050000Y-82060000D01*
%TO.C,R5*%
X75237258Y-69477500D02*
X74762742Y-69477500D01*
X75237258Y-70522500D02*
X74762742Y-70522500D01*
%TO.C,R7*%
X100237258Y-121977500D02*
X99762742Y-121977500D01*
X100237258Y-123022500D02*
X99762742Y-123022500D01*
%TO.C,R10*%
X149762742Y-131177500D02*
X150237258Y-131177500D01*
X149762742Y-132222500D02*
X150237258Y-132222500D01*
%TO.C,R4*%
X143522500Y-80337258D02*
X143522500Y-79862742D01*
X142477500Y-80337258D02*
X142477500Y-79862742D01*
%TO.C,C1*%
X138990000Y-95759420D02*
X138990000Y-96040580D01*
X140010000Y-95759420D02*
X140010000Y-96040580D01*
%TO.C,R3*%
X140522500Y-79537258D02*
X140522500Y-79062742D01*
X139477500Y-79537258D02*
X139477500Y-79062742D01*
%TD*%
M02*
