%TF.GenerationSoftware,KiCad,Pcbnew,(5.99.0-8090-ga1d7a959f7)*%
%TF.CreationDate,2021-11-03T17:46:47+00:00*%
%TF.ProjectId,Front_Panel,46726f6e-745f-4506-916e-656c2e6b6963,rev?*%
%TF.SameCoordinates,Original*%
%TF.FileFunction,Soldermask,Bot*%
%TF.FilePolarity,Negative*%
%FSLAX46Y46*%
G04 Gerber Fmt 4.6, Leading zero omitted, Abs format (unit mm)*
G04 Created by KiCad (PCBNEW (5.99.0-8090-ga1d7a959f7)) date 2021-11-03 17:46:47*
%MOMM*%
%LPD*%
G01*
G04 APERTURE LIST*
G04 Aperture macros list*
%AMRoundRect*
0 Rectangle with rounded corners*
0 $1 Rounding radius*
0 $2 $3 $4 $5 $6 $7 $8 $9 X,Y pos of 4 corners*
0 Add a 4 corners polygon primitive as box body*
4,1,4,$2,$3,$4,$5,$6,$7,$8,$9,$2,$3,0*
0 Add four circle primitives for the rounded corners*
1,1,$1+$1,$2,$3,0*
1,1,$1+$1,$4,$5,0*
1,1,$1+$1,$6,$7,0*
1,1,$1+$1,$8,$9,0*
0 Add four rect primitives between the rounded corners*
20,1,$1+$1,$2,$3,$4,$5,0*
20,1,$1+$1,$4,$5,$6,$7,0*
20,1,$1+$1,$6,$7,$8,$9,0*
20,1,$1+$1,$8,$9,$2,$3,0*%
G04 Aperture macros list end*
%ADD10C,3.200000*%
%ADD11R,1.800000X1.800000*%
%ADD12C,1.800000*%
%ADD13R,1.700000X1.700000*%
%ADD14O,1.700000X1.700000*%
%ADD15RoundRect,0.225000X-0.225000X-0.250000X0.225000X-0.250000X0.225000X0.250000X-0.225000X0.250000X0*%
%ADD16RoundRect,0.200000X0.200000X0.275000X-0.200000X0.275000X-0.200000X-0.275000X0.200000X-0.275000X0*%
%ADD17RoundRect,0.200000X-0.200000X-0.275000X0.200000X-0.275000X0.200000X0.275000X-0.200000X0.275000X0*%
%ADD18R,1.500000X2.000000*%
%ADD19R,3.800000X2.000000*%
%ADD20RoundRect,0.225000X-0.250000X0.225000X-0.250000X-0.225000X0.250000X-0.225000X0.250000X0.225000X0*%
%ADD21RoundRect,0.250000X0.620000X0.845000X-0.620000X0.845000X-0.620000X-0.845000X0.620000X-0.845000X0*%
%ADD22O,1.740000X2.190000*%
%ADD23RoundRect,0.150000X0.725000X0.150000X-0.725000X0.150000X-0.725000X-0.150000X0.725000X-0.150000X0*%
%ADD24RoundRect,0.200000X0.275000X-0.200000X0.275000X0.200000X-0.275000X0.200000X-0.275000X-0.200000X0*%
G04 APERTURE END LIST*
D10*
%TO.C,H1*%
X164000000Y-146000000D03*
%TD*%
%TO.C,H4*%
X70000000Y-58000000D03*
%TD*%
D11*
%TO.C,SW2*%
X80000000Y-100000000D03*
D12*
X69840000Y-100000000D03*
X80000000Y-107620000D03*
X69840000Y-107620000D03*
%TD*%
D10*
%TO.C,H3*%
X70000000Y-146000000D03*
%TD*%
D11*
%TO.C,SW4*%
X155000000Y-122500000D03*
D12*
X144840000Y-122500000D03*
X155000000Y-130120000D03*
X144840000Y-130120000D03*
%TD*%
D11*
%TO.C,SW1*%
X80000000Y-70000000D03*
D12*
X69840000Y-70000000D03*
X80000000Y-77620000D03*
X69840000Y-77620000D03*
%TD*%
D10*
%TO.C,H2*%
X164000000Y-58000000D03*
%TD*%
D11*
%TO.C,SW3*%
X105000000Y-122500000D03*
D12*
X94840000Y-122500000D03*
X105000000Y-130120000D03*
X94840000Y-130120000D03*
%TD*%
D13*
%TO.C,J2*%
X149125000Y-65000000D03*
D14*
X146585000Y-65000000D03*
X144045000Y-65000000D03*
X141505000Y-65000000D03*
X138965000Y-65000000D03*
X136425000Y-65000000D03*
X133885000Y-65000000D03*
X131345000Y-65000000D03*
X128805000Y-65000000D03*
X126265000Y-65000000D03*
X123725000Y-65000000D03*
X121185000Y-65000000D03*
X118645000Y-65000000D03*
X116105000Y-65000000D03*
X113565000Y-65000000D03*
X111025000Y-65000000D03*
X108485000Y-65000000D03*
X105945000Y-65000000D03*
X103405000Y-65000000D03*
X100865000Y-65000000D03*
%TD*%
D15*
%TO.C,C4*%
X149225000Y-130100000D03*
X150775000Y-130100000D03*
%TD*%
D16*
%TO.C,R8*%
X150825000Y-122500000D03*
X149175000Y-122500000D03*
%TD*%
D15*
%TO.C,C3*%
X99225000Y-130100000D03*
X100775000Y-130100000D03*
%TD*%
D16*
%TO.C,R2*%
X144625000Y-75800000D03*
X142975000Y-75800000D03*
%TD*%
D17*
%TO.C,R9*%
X99175000Y-131700000D03*
X100825000Y-131700000D03*
%TD*%
D16*
%TO.C,R6*%
X75625000Y-100000000D03*
X73975000Y-100000000D03*
%TD*%
D17*
%TO.C,R1*%
X79175000Y-121750000D03*
X80825000Y-121750000D03*
%TD*%
D18*
%TO.C,U1*%
X144100000Y-91650000D03*
X141800000Y-91650000D03*
D19*
X141800000Y-85350000D03*
D18*
X139500000Y-91650000D03*
%TD*%
D20*
%TO.C,C2*%
X141800000Y-95125000D03*
X141800000Y-96675000D03*
%TD*%
D21*
%TO.C,J1*%
X137600000Y-126800000D03*
D22*
X135060000Y-126800000D03*
X132520000Y-126800000D03*
X129980000Y-126800000D03*
X127440000Y-126800000D03*
X124900000Y-126800000D03*
X122360000Y-126800000D03*
X119820000Y-126800000D03*
X117280000Y-126800000D03*
X114740000Y-126800000D03*
X112200000Y-126800000D03*
%TD*%
D23*
%TO.C,U2*%
X151575000Y-77595000D03*
X151575000Y-78865000D03*
X151575000Y-80135000D03*
X151575000Y-81405000D03*
X146425000Y-81405000D03*
X146425000Y-80135000D03*
X146425000Y-78865000D03*
X146425000Y-77595000D03*
%TD*%
D16*
%TO.C,R5*%
X75825000Y-70000000D03*
X74175000Y-70000000D03*
%TD*%
%TO.C,R7*%
X100825000Y-122500000D03*
X99175000Y-122500000D03*
%TD*%
D17*
%TO.C,R10*%
X149175000Y-131700000D03*
X150825000Y-131700000D03*
%TD*%
D24*
%TO.C,R4*%
X143000000Y-80925000D03*
X143000000Y-79275000D03*
%TD*%
D20*
%TO.C,C1*%
X139500000Y-95125000D03*
X139500000Y-96675000D03*
%TD*%
D24*
%TO.C,R3*%
X140000000Y-80125000D03*
X140000000Y-78475000D03*
%TD*%
M02*
