%TF.GenerationSoftware,KiCad,Pcbnew,(5.99.0-8090-ga1d7a959f7)*%
%TF.CreationDate,2021-11-03T17:46:47+00:00*%
%TF.ProjectId,Front_Panel,46726f6e-745f-4506-916e-656c2e6b6963,rev?*%
%TF.SameCoordinates,Original*%
%TF.FileFunction,Soldermask,Top*%
%TF.FilePolarity,Negative*%
%FSLAX46Y46*%
G04 Gerber Fmt 4.6, Leading zero omitted, Abs format (unit mm)*
G04 Created by KiCad (PCBNEW (5.99.0-8090-ga1d7a959f7)) date 2021-11-03 17:46:47*
%MOMM*%
%LPD*%
G01*
G04 APERTURE LIST*
G04 Aperture macros list*
%AMRoundRect*
0 Rectangle with rounded corners*
0 $1 Rounding radius*
0 $2 $3 $4 $5 $6 $7 $8 $9 X,Y pos of 4 corners*
0 Add a 4 corners polygon primitive as box body*
4,1,4,$2,$3,$4,$5,$6,$7,$8,$9,$2,$3,0*
0 Add four circle primitives for the rounded corners*
1,1,$1+$1,$2,$3,0*
1,1,$1+$1,$4,$5,0*
1,1,$1+$1,$6,$7,0*
1,1,$1+$1,$8,$9,0*
0 Add four rect primitives between the rounded corners*
20,1,$1+$1,$2,$3,$4,$5,0*
20,1,$1+$1,$4,$5,$6,$7,0*
20,1,$1+$1,$6,$7,$8,$9,0*
20,1,$1+$1,$8,$9,$2,$3,0*%
G04 Aperture macros list end*
%ADD10C,0.289407*%
%ADD11C,0.289388*%
%ADD12C,0.010416*%
%ADD13C,0.010206*%
%ADD14C,0.100000*%
%ADD15C,3.200000*%
%ADD16R,1.800000X1.800000*%
%ADD17C,1.800000*%
%ADD18RoundRect,0.243750X-0.243750X-0.456250X0.243750X-0.456250X0.243750X0.456250X-0.243750X0.456250X0*%
%ADD19R,1.700000X1.700000*%
%ADD20O,1.700000X1.700000*%
%ADD21RoundRect,0.250000X0.620000X0.845000X-0.620000X0.845000X-0.620000X-0.845000X0.620000X-0.845000X0*%
%ADD22O,1.740000X2.190000*%
G04 APERTURE END LIST*
D10*
X74244917Y-123894620D02*
X74320023Y-123875452D01*
D11*
X73284467Y-128173587D02*
X73284467Y-124783832D01*
X75893224Y-128628996D02*
X75785970Y-128667334D01*
D10*
X75994465Y-125524390D02*
X75927989Y-125551076D01*
D11*
X74889932Y-128798354D02*
X74743894Y-128788156D01*
D10*
X73781078Y-125434199D02*
X73671645Y-125366228D01*
D11*
X73627123Y-128405938D02*
X73456802Y-128297637D01*
X75169617Y-128793191D02*
X75031916Y-128799774D01*
X75431269Y-128759112D02*
X75302811Y-128779379D01*
X74440559Y-128738330D02*
X74283716Y-128697152D01*
X76178870Y-128501590D02*
X76089900Y-128545349D01*
X74283716Y-128697152D02*
X74123724Y-128644098D01*
D10*
X76288357Y-124148548D02*
X76385964Y-124222233D01*
X76470892Y-124301150D02*
X76542291Y-124384819D01*
D11*
X74123724Y-128644098D02*
X73960810Y-128578395D01*
D10*
X76572650Y-124428285D02*
X76599306Y-124472758D01*
X76288357Y-125366228D02*
X76235065Y-125400958D01*
X73387351Y-125086491D02*
X73360695Y-125042018D01*
X76599306Y-124472758D02*
X76622154Y-124518179D01*
X76673328Y-124708133D02*
X76675534Y-124757388D01*
X73293221Y-124855252D02*
X73286673Y-124806643D01*
X76542291Y-124384819D02*
X76572650Y-124428285D01*
X74171809Y-123915757D02*
X74244917Y-123894620D01*
X74980001Y-123800235D02*
X74980001Y-123800235D01*
X76542291Y-125129957D02*
X76508336Y-125172356D01*
X73901484Y-124018801D02*
X73965536Y-123990386D01*
X74171809Y-125599019D02*
X74032012Y-125551076D01*
D11*
X76520974Y-128294410D02*
X76405588Y-128371860D01*
D10*
X73360695Y-124472758D02*
X73387351Y-124428285D01*
X75484200Y-125671510D02*
X75403741Y-125684408D01*
X73781078Y-124080577D02*
X73839962Y-124048884D01*
X76385964Y-124222233D02*
X76470892Y-124301150D01*
X74980001Y-125714541D02*
X74806642Y-125709600D01*
X73304003Y-124903154D02*
X73293221Y-124855252D01*
D11*
X76261293Y-128457572D02*
X76178870Y-128501590D01*
X75994609Y-128588076D02*
X75893224Y-128628996D01*
D10*
X73451665Y-124342421D02*
X73489109Y-124301150D01*
X76572650Y-125086491D02*
X76542291Y-125129957D01*
X76178924Y-125434199D02*
X76120039Y-125465892D01*
X75788192Y-123915757D02*
X75927989Y-123963700D01*
X75321710Y-125695096D02*
X75238214Y-125703513D01*
X76675534Y-124757388D02*
X76673328Y-124806643D01*
X76235065Y-125400958D02*
X76178924Y-125434199D01*
X73284467Y-124757388D02*
X73284467Y-124757388D01*
D11*
X76605636Y-128231416D02*
X76520974Y-128294410D01*
D10*
X73724936Y-124113818D02*
X73781078Y-124080577D01*
X76622154Y-124518179D02*
X76641087Y-124564487D01*
X76430066Y-125253709D02*
X76385964Y-125292543D01*
X73489109Y-124301150D02*
X73529935Y-124261067D01*
X76622154Y-124996597D02*
X76599306Y-125042018D01*
X76508336Y-125172356D02*
X76470892Y-125213626D01*
X73671645Y-125366228D02*
X73574038Y-125292543D01*
X73293221Y-124659524D02*
X73304003Y-124611622D01*
X74980001Y-125714541D02*
X74980001Y-125714541D01*
X75562982Y-125656462D02*
X75484200Y-125671510D01*
X74320023Y-125639324D02*
X74171809Y-125599019D01*
X73286673Y-124806643D02*
X73284467Y-124757388D01*
X76599306Y-125042018D02*
X76572650Y-125086491D01*
X73574038Y-125292543D02*
X73489109Y-125213626D01*
X75859196Y-125575972D02*
X75788192Y-125599019D01*
D11*
X75302811Y-128779379D02*
X75169617Y-128793191D01*
D10*
X76470892Y-125213626D02*
X76430066Y-125253709D01*
D11*
X74743894Y-128788156D02*
X74594028Y-128768406D01*
X76675542Y-128173587D02*
X76675542Y-128173587D01*
X73795201Y-128499266D02*
X73627123Y-128405938D01*
D10*
X73671645Y-124148548D02*
X73724936Y-124113818D01*
X76655998Y-124611622D02*
X76666781Y-124659524D01*
X74638292Y-125695096D02*
X74475801Y-125671510D01*
X74320023Y-123875452D02*
X74397020Y-123858314D01*
X76666781Y-124855252D02*
X76655998Y-124903154D01*
X73318914Y-124564487D02*
X73337847Y-124518179D01*
X76675534Y-124757388D02*
X76675534Y-124757388D01*
X76058517Y-125495976D02*
X75994465Y-125524390D01*
D11*
X76089900Y-128545349D02*
X75994609Y-128588076D01*
D10*
X74397020Y-123858314D02*
X74475801Y-123843266D01*
X73839962Y-124048884D02*
X73901484Y-124018801D01*
X73965536Y-123990386D02*
X74032012Y-123963700D01*
X73304003Y-124611622D02*
X73318914Y-124564487D01*
X75484200Y-123843266D02*
X75639979Y-123875452D01*
X73318914Y-124950289D02*
X73304003Y-124903154D01*
X73337847Y-124996597D02*
X73318914Y-124950289D01*
X73901484Y-125495976D02*
X73781078Y-125434199D01*
X75403741Y-125684408D02*
X75321710Y-125695096D01*
X73284467Y-124757388D02*
X73286673Y-124708133D01*
D12*
X72357861Y-94012000D02*
X72365923Y-94009003D01*
X72365923Y-94009003D02*
X72374038Y-94006446D01*
X72374038Y-94006446D02*
X72382192Y-94004322D01*
X72382192Y-94004322D02*
X72390371Y-94002625D01*
X72390371Y-94002625D02*
X72398562Y-94001351D01*
X72398562Y-94001351D02*
X72406751Y-94000492D01*
X72406751Y-94000492D02*
X72414925Y-94000044D01*
X72414925Y-94000044D02*
X72423069Y-94000000D01*
X72423069Y-94000000D02*
X72431170Y-94000355D01*
X72431170Y-94000355D02*
X72439215Y-94001102D01*
X72439215Y-94001102D02*
X72447189Y-94002236D01*
X72447189Y-94002236D02*
X72455079Y-94003750D01*
X72455079Y-94003750D02*
X72462872Y-94005640D01*
X72462872Y-94005640D02*
X72470553Y-94007899D01*
X72470553Y-94007899D02*
X72478109Y-94010521D01*
X72478109Y-94010521D02*
X72485527Y-94013500D01*
X72485527Y-94013500D02*
X72492792Y-94016831D01*
X72492792Y-94016831D02*
X72499892Y-94020508D01*
X72499892Y-94020508D02*
X72506811Y-94024525D01*
X72506811Y-94024525D02*
X72513538Y-94028875D01*
X72513538Y-94028875D02*
X72520057Y-94033554D01*
X72520057Y-94033554D02*
X72526355Y-94038555D01*
X72526355Y-94038555D02*
X72532419Y-94043872D01*
X72532419Y-94043872D02*
X72538235Y-94049500D01*
X72538235Y-94049500D02*
X72543790Y-94055433D01*
X72543790Y-94055433D02*
X72549069Y-94061664D01*
X72549069Y-94061664D02*
X72554059Y-94068189D01*
X72554059Y-94068189D02*
X72558746Y-94075000D01*
X72558746Y-94075000D02*
X72563117Y-94082093D01*
X72563117Y-94082093D02*
X72567157Y-94089461D01*
X72567157Y-94089461D02*
X72570854Y-94097099D01*
X72570854Y-94097099D02*
X72574194Y-94105000D01*
X72574194Y-94105000D02*
X72673861Y-94354334D01*
X72673861Y-94354334D02*
X72702697Y-94255196D01*
X72702697Y-94255196D02*
X72735457Y-94157782D01*
X72735457Y-94157782D02*
X72772048Y-94062186D01*
X72772048Y-94062186D02*
X72812380Y-93968501D01*
X72812380Y-93968501D02*
X72856360Y-93876820D01*
X72856360Y-93876820D02*
X72903895Y-93787236D01*
X72903895Y-93787236D02*
X72954895Y-93699844D01*
X72954895Y-93699844D02*
X73009267Y-93614735D01*
X73009267Y-93614735D02*
X73066919Y-93532004D01*
X73066919Y-93532004D02*
X73127759Y-93451743D01*
X73127759Y-93451743D02*
X73191696Y-93374047D01*
X73191696Y-93374047D02*
X73258638Y-93299008D01*
X73258638Y-93299008D02*
X73328492Y-93226719D01*
X73328492Y-93226719D02*
X73401167Y-93157275D01*
X73401167Y-93157275D02*
X73476570Y-93090768D01*
X73476570Y-93090768D02*
X73554610Y-93027292D01*
X73554610Y-93027292D02*
X73635196Y-92966940D01*
X73635196Y-92966940D02*
X73718234Y-92909805D01*
X73718234Y-92909805D02*
X73803633Y-92855981D01*
X73803633Y-92855981D02*
X73891302Y-92805561D01*
X73891302Y-92805561D02*
X73981147Y-92758638D01*
X73981147Y-92758638D02*
X74073078Y-92715306D01*
X74073078Y-92715306D02*
X74167003Y-92675658D01*
X74167003Y-92675658D02*
X74262829Y-92639787D01*
X74262829Y-92639787D02*
X74360464Y-92607787D01*
X74360464Y-92607787D02*
X74459818Y-92579750D01*
X74459818Y-92579750D02*
X74560797Y-92555771D01*
X74560797Y-92555771D02*
X74663309Y-92535943D01*
X74663309Y-92535943D02*
X74767264Y-92520358D01*
X74767264Y-92520358D02*
X74872569Y-92509110D01*
X74872569Y-92509110D02*
X74979131Y-92502294D01*
X74979131Y-92502294D02*
X75086860Y-92500001D01*
X75086860Y-92500001D02*
X75215330Y-92503259D01*
X75215330Y-92503259D02*
X75342133Y-92512930D01*
X75342133Y-92512930D02*
X75467113Y-92528855D01*
X75467113Y-92528855D02*
X75590110Y-92550875D01*
X75590110Y-92550875D02*
X75710967Y-92578834D01*
X75710967Y-92578834D02*
X75829524Y-92612571D01*
X75829524Y-92612571D02*
X75945625Y-92651929D01*
X75945625Y-92651929D02*
X76059110Y-92696750D01*
X76059110Y-92696750D02*
X76169822Y-92746876D01*
X76169822Y-92746876D02*
X76277602Y-92802149D01*
X76277602Y-92802149D02*
X76382293Y-92862410D01*
X76382293Y-92862410D02*
X76483735Y-92927500D01*
X76483735Y-92927500D02*
X76581771Y-92997263D01*
X76581771Y-92997263D02*
X76676243Y-93071540D01*
X76676243Y-93071540D02*
X76766992Y-93150171D01*
X76766992Y-93150171D02*
X76853860Y-93233000D01*
X76853860Y-93233000D02*
X76936689Y-93319869D01*
X76936689Y-93319869D02*
X77015321Y-93410618D01*
X77015321Y-93410618D02*
X77089597Y-93505089D01*
X77089597Y-93505089D02*
X77159360Y-93603125D01*
X77159360Y-93603125D02*
X77224451Y-93704568D01*
X77224451Y-93704568D02*
X77284711Y-93809258D01*
X77284711Y-93809258D02*
X77339984Y-93917038D01*
X77339984Y-93917038D02*
X77390110Y-94027750D01*
X77390110Y-94027750D02*
X77434931Y-94141236D01*
X77434931Y-94141236D02*
X77474289Y-94257336D01*
X77474289Y-94257336D02*
X77508027Y-94375894D01*
X77508027Y-94375894D02*
X77535985Y-94496750D01*
X77535985Y-94496750D02*
X77558005Y-94619747D01*
X77558005Y-94619747D02*
X77573930Y-94744727D01*
X77573930Y-94744727D02*
X77583601Y-94871531D01*
X77583601Y-94871531D02*
X77586860Y-95000000D01*
X77586860Y-95000000D02*
X77583601Y-95128470D01*
X77583601Y-95128470D02*
X77573930Y-95255274D01*
X77573930Y-95255274D02*
X77558005Y-95380253D01*
X77558005Y-95380253D02*
X77535985Y-95503250D01*
X77535985Y-95503250D02*
X77508027Y-95624107D01*
X77508027Y-95624107D02*
X77474289Y-95742664D01*
X77474289Y-95742664D02*
X77434931Y-95858765D01*
X77434931Y-95858765D02*
X77390110Y-95972250D01*
X77390110Y-95972250D02*
X77339984Y-96082962D01*
X77339984Y-96082962D02*
X77284711Y-96190742D01*
X77284711Y-96190742D02*
X77224450Y-96295433D01*
X77224450Y-96295433D02*
X77159360Y-96396875D01*
X77159360Y-96396875D02*
X77089597Y-96494911D01*
X77089597Y-96494911D02*
X77015321Y-96589383D01*
X77015321Y-96589383D02*
X76936689Y-96680132D01*
X76936689Y-96680132D02*
X76853860Y-96767000D01*
X76853860Y-96767000D02*
X76766992Y-96849829D01*
X76766992Y-96849829D02*
X76676243Y-96928461D01*
X76676243Y-96928461D02*
X76581771Y-97002737D01*
X76581771Y-97002737D02*
X76483735Y-97072500D01*
X76483735Y-97072500D02*
X76382292Y-97137591D01*
X76382292Y-97137591D02*
X76277602Y-97197852D01*
X76277602Y-97197852D02*
X76169822Y-97253124D01*
X76169822Y-97253124D02*
X76059110Y-97303250D01*
X76059110Y-97303250D02*
X75945625Y-97348071D01*
X75945625Y-97348071D02*
X75829524Y-97387430D01*
X75829524Y-97387430D02*
X75710966Y-97421167D01*
X75710966Y-97421167D02*
X75590110Y-97449125D01*
X75590110Y-97449125D02*
X75467113Y-97471146D01*
X75467113Y-97471146D02*
X75342133Y-97487070D01*
X75342133Y-97487070D02*
X75215330Y-97496741D01*
X75215330Y-97496741D02*
X75086860Y-97500000D01*
X75086860Y-97500000D02*
X74962169Y-97496965D01*
X74962169Y-97496965D02*
X74838585Y-97487906D01*
X74838585Y-97487906D02*
X74716274Y-97472892D01*
X74716274Y-97472892D02*
X74595407Y-97451995D01*
X74595407Y-97451995D02*
X74476151Y-97425283D01*
X74476151Y-97425283D02*
X74358675Y-97392826D01*
X74358675Y-97392826D02*
X74243147Y-97354695D01*
X74243147Y-97354695D02*
X74129735Y-97310959D01*
X74129735Y-97310959D02*
X74018609Y-97261687D01*
X74018609Y-97261687D02*
X73909937Y-97206950D01*
X73909937Y-97206950D02*
X73803886Y-97146818D01*
X73803886Y-97146818D02*
X73700626Y-97081360D01*
X73700626Y-97081360D02*
X73600325Y-97010646D01*
X73600325Y-97010646D02*
X73503152Y-96934746D01*
X73503152Y-96934746D02*
X73409274Y-96853730D01*
X73409274Y-96853730D02*
X73318860Y-96767667D01*
X73318860Y-96767667D02*
X73312957Y-96761457D01*
X73312957Y-96761457D02*
X73307435Y-96755023D01*
X73307435Y-96755023D02*
X73302293Y-96748381D01*
X73302293Y-96748381D02*
X73297532Y-96741545D01*
X73297532Y-96741545D02*
X73293153Y-96734530D01*
X73293153Y-96734530D02*
X73289154Y-96727352D01*
X73289154Y-96727352D02*
X73285535Y-96720024D01*
X73285535Y-96720024D02*
X73282298Y-96712563D01*
X73282298Y-96712563D02*
X73279442Y-96704982D01*
X73279442Y-96704982D02*
X73276966Y-96697298D01*
X73276966Y-96697298D02*
X73274871Y-96689523D01*
X73274871Y-96689523D02*
X73273157Y-96681675D01*
X73273157Y-96681675D02*
X73271824Y-96673767D01*
X73271824Y-96673767D02*
X73270872Y-96665814D01*
X73270872Y-96665814D02*
X73270301Y-96657831D01*
X73270301Y-96657831D02*
X73270111Y-96649834D01*
X73270111Y-96649834D02*
X73270301Y-96641836D01*
X73270301Y-96641836D02*
X73270872Y-96633853D01*
X73270872Y-96633853D02*
X73271824Y-96625901D01*
X73271824Y-96625901D02*
X73273157Y-96617992D01*
X73273157Y-96617992D02*
X73274871Y-96610144D01*
X73274871Y-96610144D02*
X73276966Y-96602370D01*
X73276966Y-96602370D02*
X73279442Y-96594685D01*
X73279442Y-96594685D02*
X73282298Y-96587104D01*
X73282298Y-96587104D02*
X73285535Y-96579643D01*
X73285535Y-96579643D02*
X73289154Y-96572316D01*
X73289154Y-96572316D02*
X73293153Y-96565137D01*
X73293153Y-96565137D02*
X73297532Y-96558123D01*
X73297532Y-96558123D02*
X73302293Y-96551287D01*
X73302293Y-96551287D02*
X73307435Y-96544645D01*
X73307435Y-96544645D02*
X73312957Y-96538211D01*
X73312957Y-96538211D02*
X73318860Y-96532001D01*
X73318860Y-96532001D02*
X73325071Y-96526097D01*
X73325071Y-96526097D02*
X73331505Y-96520575D01*
X73331505Y-96520575D02*
X73338147Y-96515433D01*
X73338147Y-96515433D02*
X73344983Y-96510672D01*
X73344983Y-96510672D02*
X73351997Y-96506293D01*
X73351997Y-96506293D02*
X73359176Y-96502294D01*
X73359176Y-96502294D02*
X73366503Y-96498675D01*
X73366503Y-96498675D02*
X73373965Y-96495438D01*
X73373965Y-96495438D02*
X73381545Y-96492582D01*
X73381545Y-96492582D02*
X73389230Y-96490106D01*
X73389230Y-96490106D02*
X73397004Y-96488011D01*
X73397004Y-96488011D02*
X73404853Y-96486297D01*
X73404853Y-96486297D02*
X73412761Y-96484964D01*
X73412761Y-96484964D02*
X73420714Y-96484012D01*
X73420714Y-96484012D02*
X73428696Y-96483441D01*
X73428696Y-96483441D02*
X73436694Y-96483251D01*
X73436694Y-96483251D02*
X73444691Y-96483441D01*
X73444691Y-96483441D02*
X73452674Y-96484012D01*
X73452674Y-96484012D02*
X73460627Y-96484964D01*
X73460627Y-96484964D02*
X73468535Y-96486297D01*
X73468535Y-96486297D02*
X73476383Y-96488011D01*
X73476383Y-96488011D02*
X73484158Y-96490106D01*
X73484158Y-96490106D02*
X73491842Y-96492582D01*
X73491842Y-96492582D02*
X73499423Y-96495438D01*
X73499423Y-96495438D02*
X73506884Y-96498675D01*
X73506884Y-96498675D02*
X73514212Y-96502294D01*
X73514212Y-96502294D02*
X73521390Y-96506293D01*
X73521390Y-96506293D02*
X73528405Y-96510672D01*
X73528405Y-96510672D02*
X73535240Y-96515433D01*
X73535240Y-96515433D02*
X73541883Y-96520575D01*
X73541883Y-96520575D02*
X73548317Y-96526097D01*
X73548317Y-96526097D02*
X73554527Y-96532001D01*
X73554527Y-96532001D02*
X73632893Y-96606584D01*
X73632893Y-96606584D02*
X73714268Y-96676795D01*
X73714268Y-96676795D02*
X73798504Y-96742572D01*
X73798504Y-96742572D02*
X73885454Y-96803855D01*
X73885454Y-96803855D02*
X73974970Y-96860583D01*
X73974970Y-96860583D02*
X74066906Y-96912696D01*
X74066906Y-96912696D02*
X74161113Y-96960133D01*
X74161113Y-96960133D02*
X74257444Y-97002834D01*
X74257444Y-97002834D02*
X74355751Y-97040737D01*
X74355751Y-97040737D02*
X74455888Y-97073784D01*
X74455888Y-97073784D02*
X74557706Y-97101912D01*
X74557706Y-97101912D02*
X74661058Y-97125062D01*
X74661058Y-97125062D02*
X74765797Y-97143173D01*
X74765797Y-97143173D02*
X74871775Y-97156185D01*
X74871775Y-97156185D02*
X74978846Y-97164036D01*
X74978846Y-97164036D02*
X75086860Y-97166667D01*
X75086860Y-97166667D02*
X75198185Y-97163842D01*
X75198185Y-97163842D02*
X75308068Y-97155459D01*
X75308068Y-97155459D02*
X75416371Y-97141655D01*
X75416371Y-97141655D02*
X75522959Y-97122568D01*
X75522959Y-97122568D02*
X75627693Y-97098334D01*
X75627693Y-97098334D02*
X75730436Y-97069090D01*
X75730436Y-97069090D02*
X75831051Y-97034975D01*
X75831051Y-97034975D02*
X75929402Y-96996125D01*
X75929402Y-96996125D02*
X76025349Y-96952677D01*
X76025349Y-96952677D02*
X76118758Y-96904769D01*
X76118758Y-96904769D02*
X76209489Y-96852537D01*
X76209489Y-96852537D02*
X76297407Y-96796120D01*
X76297407Y-96796120D02*
X76382373Y-96735653D01*
X76382373Y-96735653D02*
X76464251Y-96671275D01*
X76464251Y-96671275D02*
X76542904Y-96603123D01*
X76542904Y-96603123D02*
X76618193Y-96531333D01*
X76618193Y-96531333D02*
X76689983Y-96456044D01*
X76689983Y-96456044D02*
X76758135Y-96377391D01*
X76758135Y-96377391D02*
X76822513Y-96295513D01*
X76822513Y-96295513D02*
X76882980Y-96210547D01*
X76882980Y-96210547D02*
X76939397Y-96122630D01*
X76939397Y-96122630D02*
X76991629Y-96031898D01*
X76991629Y-96031898D02*
X77039537Y-95938490D01*
X77039537Y-95938490D02*
X77082985Y-95842542D01*
X77082985Y-95842542D02*
X77121835Y-95744192D01*
X77121835Y-95744192D02*
X77155950Y-95643576D01*
X77155950Y-95643576D02*
X77185194Y-95540833D01*
X77185194Y-95540833D02*
X77209428Y-95436099D01*
X77209428Y-95436099D02*
X77228515Y-95329512D01*
X77228515Y-95329512D02*
X77242319Y-95221208D01*
X77242319Y-95221208D02*
X77250702Y-95111325D01*
X77250702Y-95111325D02*
X77253527Y-95000000D01*
X77253527Y-95000000D02*
X77250702Y-94888675D01*
X77250702Y-94888675D02*
X77242319Y-94778793D01*
X77242319Y-94778793D02*
X77228515Y-94670489D01*
X77228515Y-94670489D02*
X77209428Y-94563901D01*
X77209428Y-94563901D02*
X77185194Y-94459167D01*
X77185194Y-94459167D02*
X77155950Y-94356424D01*
X77155950Y-94356424D02*
X77121835Y-94255809D01*
X77121835Y-94255809D02*
X77082985Y-94157459D01*
X77082985Y-94157459D02*
X77039537Y-94061511D01*
X77039537Y-94061511D02*
X76991629Y-93968103D01*
X76991629Y-93968103D02*
X76939397Y-93877371D01*
X76939397Y-93877371D02*
X76882980Y-93789453D01*
X76882980Y-93789453D02*
X76822513Y-93704487D01*
X76822513Y-93704487D02*
X76758135Y-93622609D01*
X76758135Y-93622609D02*
X76689983Y-93543957D01*
X76689983Y-93543957D02*
X76618193Y-93468667D01*
X76618193Y-93468667D02*
X76542904Y-93396877D01*
X76542904Y-93396877D02*
X76464251Y-93328725D01*
X76464251Y-93328725D02*
X76382373Y-93264347D01*
X76382373Y-93264347D02*
X76297407Y-93203881D01*
X76297407Y-93203881D02*
X76209489Y-93147463D01*
X76209489Y-93147463D02*
X76118758Y-93095231D01*
X76118758Y-93095231D02*
X76025349Y-93047323D01*
X76025349Y-93047323D02*
X75929402Y-93003875D01*
X75929402Y-93003875D02*
X75831051Y-92965025D01*
X75831051Y-92965025D02*
X75730436Y-92930910D01*
X75730436Y-92930910D02*
X75627693Y-92901667D01*
X75627693Y-92901667D02*
X75522959Y-92877433D01*
X75522959Y-92877433D02*
X75416371Y-92858345D01*
X75416371Y-92858345D02*
X75308068Y-92844541D01*
X75308068Y-92844541D02*
X75198185Y-92836158D01*
X75198185Y-92836158D02*
X75086860Y-92833334D01*
X75086860Y-92833334D02*
X74989840Y-92835479D01*
X74989840Y-92835479D02*
X74893903Y-92841853D01*
X74893903Y-92841853D02*
X74799138Y-92852367D01*
X74799138Y-92852367D02*
X74705637Y-92866929D01*
X74705637Y-92866929D02*
X74613491Y-92885448D01*
X74613491Y-92885448D02*
X74522788Y-92907834D01*
X74522788Y-92907834D02*
X74433621Y-92933996D01*
X74433621Y-92933996D02*
X74346079Y-92963844D01*
X74346079Y-92963844D02*
X74260253Y-92997286D01*
X74260253Y-92997286D02*
X74176233Y-93034233D01*
X74176233Y-93034233D02*
X74094110Y-93074593D01*
X74094110Y-93074593D02*
X74013974Y-93118275D01*
X74013974Y-93118275D02*
X73860025Y-93215245D01*
X73860025Y-93215245D02*
X73715110Y-93324417D01*
X73715110Y-93324417D02*
X73579954Y-93445066D01*
X73579954Y-93445066D02*
X73455278Y-93576465D01*
X73455278Y-93576465D02*
X73341808Y-93717890D01*
X73341808Y-93717890D02*
X73240267Y-93868615D01*
X73240267Y-93868615D02*
X73194195Y-93947238D01*
X73194195Y-93947238D02*
X73151378Y-94027914D01*
X73151378Y-94027914D02*
X73111904Y-94110552D01*
X73111904Y-94110552D02*
X73075864Y-94195061D01*
X73075864Y-94195061D02*
X73043350Y-94281352D01*
X73043350Y-94281352D02*
X73014451Y-94369332D01*
X73014451Y-94369332D02*
X72989258Y-94458912D01*
X72989258Y-94458912D02*
X72967860Y-94550000D01*
X72967860Y-94550000D02*
X73302194Y-94215334D01*
X73302194Y-94215334D02*
X73308404Y-94209430D01*
X73308404Y-94209430D02*
X73314838Y-94203908D01*
X73314838Y-94203908D02*
X73321480Y-94198766D01*
X73321480Y-94198766D02*
X73328316Y-94194005D01*
X73328316Y-94194005D02*
X73335331Y-94189626D01*
X73335331Y-94189626D02*
X73342509Y-94185627D01*
X73342509Y-94185627D02*
X73349837Y-94182008D01*
X73349837Y-94182008D02*
X73357298Y-94178771D01*
X73357298Y-94178771D02*
X73364878Y-94175915D01*
X73364878Y-94175915D02*
X73372563Y-94173439D01*
X73372563Y-94173439D02*
X73380337Y-94171344D01*
X73380337Y-94171344D02*
X73388186Y-94169630D01*
X73388186Y-94169630D02*
X73396094Y-94168297D01*
X73396094Y-94168297D02*
X73404047Y-94167345D01*
X73404047Y-94167345D02*
X73412030Y-94166774D01*
X73412030Y-94166774D02*
X73420027Y-94166584D01*
X73420027Y-94166584D02*
X73428025Y-94166774D01*
X73428025Y-94166774D02*
X73436007Y-94167345D01*
X73436007Y-94167345D02*
X73443960Y-94168297D01*
X73443960Y-94168297D02*
X73451868Y-94169630D01*
X73451868Y-94169630D02*
X73459717Y-94171344D01*
X73459717Y-94171344D02*
X73467491Y-94173439D01*
X73467491Y-94173439D02*
X73475176Y-94175915D01*
X73475176Y-94175915D02*
X73482756Y-94178771D01*
X73482756Y-94178771D02*
X73490218Y-94182008D01*
X73490218Y-94182008D02*
X73497545Y-94185627D01*
X73497545Y-94185627D02*
X73504723Y-94189626D01*
X73504723Y-94189626D02*
X73511738Y-94194005D01*
X73511738Y-94194005D02*
X73518574Y-94198766D01*
X73518574Y-94198766D02*
X73525216Y-94203908D01*
X73525216Y-94203908D02*
X73531650Y-94209430D01*
X73531650Y-94209430D02*
X73537860Y-94215334D01*
X73537860Y-94215334D02*
X73543764Y-94221544D01*
X73543764Y-94221544D02*
X73549286Y-94227978D01*
X73549286Y-94227978D02*
X73554428Y-94234620D01*
X73554428Y-94234620D02*
X73559188Y-94241456D01*
X73559188Y-94241456D02*
X73563568Y-94248471D01*
X73563568Y-94248471D02*
X73567567Y-94255649D01*
X73567567Y-94255649D02*
X73571185Y-94262976D01*
X73571185Y-94262976D02*
X73574423Y-94270438D01*
X73574423Y-94270438D02*
X73577279Y-94278018D01*
X73577279Y-94278018D02*
X73579755Y-94285703D01*
X73579755Y-94285703D02*
X73581850Y-94293477D01*
X73581850Y-94293477D02*
X73583563Y-94301326D01*
X73583563Y-94301326D02*
X73584896Y-94309234D01*
X73584896Y-94309234D02*
X73585849Y-94317187D01*
X73585849Y-94317187D02*
X73586420Y-94325169D01*
X73586420Y-94325169D02*
X73586610Y-94333167D01*
X73586610Y-94333167D02*
X73586420Y-94341164D01*
X73586420Y-94341164D02*
X73585849Y-94349147D01*
X73585849Y-94349147D02*
X73584896Y-94357100D01*
X73584896Y-94357100D02*
X73583563Y-94365008D01*
X73583563Y-94365008D02*
X73581850Y-94372857D01*
X73581850Y-94372857D02*
X73579755Y-94380631D01*
X73579755Y-94380631D02*
X73577279Y-94388316D01*
X73577279Y-94388316D02*
X73574423Y-94395896D01*
X73574423Y-94395896D02*
X73571185Y-94403357D01*
X73571185Y-94403357D02*
X73567567Y-94410685D01*
X73567567Y-94410685D02*
X73563568Y-94417863D01*
X73563568Y-94417863D02*
X73559188Y-94424878D01*
X73559188Y-94424878D02*
X73554428Y-94431714D01*
X73554428Y-94431714D02*
X73549286Y-94438356D01*
X73549286Y-94438356D02*
X73543764Y-94444790D01*
X73543764Y-94444790D02*
X73537860Y-94451000D01*
X73537860Y-94451000D02*
X72871194Y-95117667D01*
X72871194Y-95117667D02*
X72870491Y-95118328D01*
X72870491Y-95118328D02*
X72869761Y-95118941D01*
X72869761Y-95118941D02*
X72869006Y-95119512D01*
X72869006Y-95119512D02*
X72868230Y-95120047D01*
X72868230Y-95120047D02*
X72867437Y-95120553D01*
X72867437Y-95120553D02*
X72866629Y-95121036D01*
X72866629Y-95121036D02*
X72864985Y-95121958D01*
X72864985Y-95121958D02*
X72863326Y-95122865D01*
X72863326Y-95122865D02*
X72861678Y-95123807D01*
X72861678Y-95123807D02*
X72860867Y-95124308D01*
X72860867Y-95124308D02*
X72860069Y-95124835D01*
X72860069Y-95124835D02*
X72859288Y-95125398D01*
X72859288Y-95125398D02*
X72858527Y-95126000D01*
X72858527Y-95126000D02*
X72853757Y-95129977D01*
X72853757Y-95129977D02*
X72848933Y-95133880D01*
X72848933Y-95133880D02*
X72844031Y-95137666D01*
X72844031Y-95137666D02*
X72841543Y-95139501D01*
X72841543Y-95139501D02*
X72839027Y-95141292D01*
X72839027Y-95141292D02*
X72836480Y-95143031D01*
X72836480Y-95143031D02*
X72833898Y-95144714D01*
X72833898Y-95144714D02*
X72831279Y-95146336D01*
X72831279Y-95146336D02*
X72828621Y-95147891D01*
X72828621Y-95147891D02*
X72825919Y-95149373D01*
X72825919Y-95149373D02*
X72823172Y-95150778D01*
X72823172Y-95150778D02*
X72820375Y-95152100D01*
X72820375Y-95152100D02*
X72817527Y-95153333D01*
X72817527Y-95153333D02*
X72813754Y-95154966D01*
X72813754Y-95154966D02*
X72809937Y-95156490D01*
X72809937Y-95156490D02*
X72806079Y-95157906D01*
X72806079Y-95157906D02*
X72802183Y-95159214D01*
X72802183Y-95159214D02*
X72798252Y-95160414D01*
X72798252Y-95160414D02*
X72794288Y-95161507D01*
X72794288Y-95161507D02*
X72790296Y-95162494D01*
X72790296Y-95162494D02*
X72786277Y-95163375D01*
X72786277Y-95163375D02*
X72782234Y-95164150D01*
X72782234Y-95164150D02*
X72778171Y-95164821D01*
X72778171Y-95164821D02*
X72774091Y-95165387D01*
X72774091Y-95165387D02*
X72769996Y-95165849D01*
X72769996Y-95165849D02*
X72765889Y-95166207D01*
X72765889Y-95166207D02*
X72761773Y-95166463D01*
X72761773Y-95166463D02*
X72757651Y-95166616D01*
X72757651Y-95166616D02*
X72753527Y-95166667D01*
X72753527Y-95166667D02*
X72749387Y-95166619D01*
X72749387Y-95166619D02*
X72745220Y-95166474D01*
X72745220Y-95166474D02*
X72741029Y-95166227D01*
X72741029Y-95166227D02*
X72736819Y-95165875D01*
X72736819Y-95165875D02*
X72732593Y-95165413D01*
X72732593Y-95165413D02*
X72728355Y-95164838D01*
X72728355Y-95164838D02*
X72724110Y-95164146D01*
X72724110Y-95164146D02*
X72719860Y-95163333D01*
X72719860Y-95163333D02*
X72719426Y-95163232D01*
X72719426Y-95163232D02*
X72719000Y-95163116D01*
X72719000Y-95163116D02*
X72718168Y-95162843D01*
X72718168Y-95162843D02*
X72717360Y-95162522D01*
X72717360Y-95162522D02*
X72716574Y-95162161D01*
X72716574Y-95162161D02*
X72715805Y-95161767D01*
X72715805Y-95161767D02*
X72715050Y-95161347D01*
X72715050Y-95161347D02*
X72713569Y-95160458D01*
X72713569Y-95160458D02*
X72712103Y-95159554D01*
X72712103Y-95159554D02*
X72711368Y-95159114D01*
X72711368Y-95159114D02*
X72710626Y-95158692D01*
X72710626Y-95158692D02*
X72709874Y-95158296D01*
X72709874Y-95158296D02*
X72709110Y-95157933D01*
X72709110Y-95157933D02*
X72708328Y-95157609D01*
X72708328Y-95157609D02*
X72707527Y-95157333D01*
X72707527Y-95157333D02*
X72704359Y-95156365D01*
X72704359Y-95156365D02*
X72701229Y-95155334D01*
X72701229Y-95155334D02*
X72698136Y-95154244D01*
X72698136Y-95154244D02*
X72695079Y-95153094D01*
X72695079Y-95153094D02*
X72692057Y-95151885D01*
X72692057Y-95151885D02*
X72689070Y-95150618D01*
X72689070Y-95150618D02*
X72683194Y-95147917D01*
X72683194Y-95147917D02*
X72677442Y-95144996D01*
X72677442Y-95144996D02*
X72671808Y-95141864D01*
X72671808Y-95141864D02*
X72666283Y-95138530D01*
X72666283Y-95138530D02*
X72660860Y-95135000D01*
X72660860Y-95135000D02*
X72658486Y-95133431D01*
X72658486Y-95133431D02*
X72656121Y-95131948D01*
X72656121Y-95131948D02*
X72651443Y-95129083D01*
X72651443Y-95129083D02*
X72649148Y-95127624D01*
X72649148Y-95127624D02*
X72646891Y-95126094D01*
X72646891Y-95126094D02*
X72645780Y-95125290D01*
X72645780Y-95125290D02*
X72644682Y-95124454D01*
X72644682Y-95124454D02*
X72643597Y-95123581D01*
X72643597Y-95123581D02*
X72642527Y-95122667D01*
X72642527Y-95122667D02*
X72639125Y-95119506D01*
X72639125Y-95119506D02*
X72635798Y-95116275D01*
X72635798Y-95116275D02*
X72632548Y-95112971D01*
X72632548Y-95112971D02*
X72629381Y-95109594D01*
X72629381Y-95109594D02*
X72626300Y-95106142D01*
X72626300Y-95106142D02*
X72623308Y-95102616D01*
X72623308Y-95102616D02*
X72620410Y-95099013D01*
X72620410Y-95099013D02*
X72617610Y-95095333D01*
X72617610Y-95095333D02*
X72614912Y-95091575D01*
X72614912Y-95091575D02*
X72612319Y-95087738D01*
X72612319Y-95087738D02*
X72609835Y-95083821D01*
X72609835Y-95083821D02*
X72607464Y-95079823D01*
X72607464Y-95079823D02*
X72605211Y-95075743D01*
X72605211Y-95075743D02*
X72603079Y-95071579D01*
X72603079Y-95071579D02*
X72601072Y-95067332D01*
X72601072Y-95067332D02*
X72599194Y-95063000D01*
X72599194Y-95063000D02*
X72599193Y-95062969D01*
X72599193Y-95062969D02*
X72599190Y-95062937D01*
X72599190Y-95062937D02*
X72599185Y-95062906D01*
X72599185Y-95062906D02*
X72599179Y-95062875D01*
X72599179Y-95062875D02*
X72599170Y-95062844D01*
X72599170Y-95062844D02*
X72599161Y-95062812D01*
X72599161Y-95062812D02*
X72599149Y-95062781D01*
X72599149Y-95062781D02*
X72599136Y-95062750D01*
X72599136Y-95062750D02*
X72599106Y-95062687D01*
X72599106Y-95062687D02*
X72599071Y-95062625D01*
X72599071Y-95062625D02*
X72599030Y-95062562D01*
X72599030Y-95062562D02*
X72598985Y-95062500D01*
X72598985Y-95062500D02*
X72598936Y-95062437D01*
X72598936Y-95062437D02*
X72598884Y-95062375D01*
X72598884Y-95062375D02*
X72598829Y-95062312D01*
X72598829Y-95062312D02*
X72598772Y-95062250D01*
X72598772Y-95062250D02*
X72598651Y-95062125D01*
X72598651Y-95062125D02*
X72598527Y-95062000D01*
X72598527Y-95062000D02*
X72265193Y-94228667D01*
X72265193Y-94228667D02*
X72262195Y-94220635D01*
X72262195Y-94220635D02*
X72259635Y-94212548D01*
X72259635Y-94212548D02*
X72257506Y-94204420D01*
X72257506Y-94204420D02*
X72255804Y-94196265D01*
X72255804Y-94196265D02*
X72254522Y-94188096D01*
X72254522Y-94188096D02*
X72253655Y-94179926D01*
X72253655Y-94179926D02*
X72253197Y-94171770D01*
X72253197Y-94171770D02*
X72253141Y-94163641D01*
X72253141Y-94163641D02*
X72253484Y-94155552D01*
X72253484Y-94155552D02*
X72254218Y-94147517D01*
X72254218Y-94147517D02*
X72255338Y-94139550D01*
X72255338Y-94139550D02*
X72256838Y-94131665D01*
X72256838Y-94131665D02*
X72258713Y-94123874D01*
X72258713Y-94123874D02*
X72260956Y-94116192D01*
X72260956Y-94116192D02*
X72263563Y-94108632D01*
X72263563Y-94108632D02*
X72266527Y-94101208D01*
X72266527Y-94101208D02*
X72269842Y-94093934D01*
X72269842Y-94093934D02*
X72273504Y-94086822D01*
X72273504Y-94086822D02*
X72277505Y-94079887D01*
X72277505Y-94079887D02*
X72281841Y-94073142D01*
X72281841Y-94073142D02*
X72286505Y-94066602D01*
X72286505Y-94066602D02*
X72291492Y-94060278D01*
X72291492Y-94060278D02*
X72296796Y-94054186D01*
X72296796Y-94054186D02*
X72302412Y-94048338D01*
X72302412Y-94048338D02*
X72308334Y-94042749D01*
X72308334Y-94042749D02*
X72314555Y-94037432D01*
X72314555Y-94037432D02*
X72321070Y-94032400D01*
X72321070Y-94032400D02*
X72327874Y-94027667D01*
X72327874Y-94027667D02*
X72334961Y-94023247D01*
X72334961Y-94023247D02*
X72342325Y-94019154D01*
X72342325Y-94019154D02*
X72349960Y-94015400D01*
X72349960Y-94015400D02*
X72357860Y-94012000D01*
X72357860Y-94012000D02*
X72357861Y-94012000D01*
X72357861Y-94012000D02*
X72357861Y-94012000D01*
G36*
X75215330Y-92503259D02*
G01*
X75342133Y-92512930D01*
X75467113Y-92528855D01*
X75590110Y-92550875D01*
X75710967Y-92578834D01*
X75829524Y-92612571D01*
X75945625Y-92651929D01*
X76059110Y-92696750D01*
X76169822Y-92746876D01*
X76277602Y-92802149D01*
X76382293Y-92862410D01*
X76483735Y-92927500D01*
X76581771Y-92997263D01*
X76676243Y-93071540D01*
X76766992Y-93150171D01*
X76853860Y-93233000D01*
X76936689Y-93319869D01*
X77015321Y-93410618D01*
X77089597Y-93505089D01*
X77159360Y-93603125D01*
X77224451Y-93704568D01*
X77284711Y-93809258D01*
X77339984Y-93917038D01*
X77390110Y-94027750D01*
X77434931Y-94141236D01*
X77474289Y-94257336D01*
X77508027Y-94375894D01*
X77535985Y-94496750D01*
X77558005Y-94619747D01*
X77573930Y-94744727D01*
X77583601Y-94871531D01*
X77586860Y-95000000D01*
X77583601Y-95128470D01*
X77573930Y-95255274D01*
X77558005Y-95380253D01*
X77535985Y-95503250D01*
X77508027Y-95624107D01*
X77474289Y-95742664D01*
X77434931Y-95858765D01*
X77390110Y-95972250D01*
X77339984Y-96082962D01*
X77284711Y-96190742D01*
X77224450Y-96295433D01*
X77159360Y-96396875D01*
X77089597Y-96494911D01*
X77015321Y-96589383D01*
X76936689Y-96680132D01*
X76853860Y-96767000D01*
X76766992Y-96849829D01*
X76676243Y-96928461D01*
X76581771Y-97002737D01*
X76483735Y-97072500D01*
X76382292Y-97137591D01*
X76277602Y-97197852D01*
X76169822Y-97253124D01*
X76059110Y-97303250D01*
X75945625Y-97348071D01*
X75829524Y-97387430D01*
X75710966Y-97421167D01*
X75590110Y-97449125D01*
X75467113Y-97471146D01*
X75342133Y-97487070D01*
X75215330Y-97496741D01*
X75086860Y-97500000D01*
X74962169Y-97496965D01*
X74838585Y-97487906D01*
X74716274Y-97472892D01*
X74595407Y-97451995D01*
X74476151Y-97425283D01*
X74358675Y-97392826D01*
X74243147Y-97354695D01*
X74129735Y-97310959D01*
X74018609Y-97261687D01*
X73909937Y-97206950D01*
X73803886Y-97146818D01*
X73700626Y-97081360D01*
X73600325Y-97010646D01*
X73503152Y-96934746D01*
X73409274Y-96853730D01*
X73318860Y-96767667D01*
X73312957Y-96761457D01*
X73307435Y-96755023D01*
X73302293Y-96748381D01*
X73297532Y-96741545D01*
X73293153Y-96734530D01*
X73289154Y-96727352D01*
X73285535Y-96720024D01*
X73282298Y-96712563D01*
X73279442Y-96704982D01*
X73276966Y-96697298D01*
X73274871Y-96689523D01*
X73273157Y-96681675D01*
X73271824Y-96673767D01*
X73270872Y-96665814D01*
X73270301Y-96657831D01*
X73270111Y-96649834D01*
X73270301Y-96641836D01*
X73270872Y-96633853D01*
X73271824Y-96625901D01*
X73273157Y-96617992D01*
X73274871Y-96610144D01*
X73276966Y-96602370D01*
X73279442Y-96594685D01*
X73282298Y-96587104D01*
X73285535Y-96579643D01*
X73289154Y-96572316D01*
X73293153Y-96565137D01*
X73297532Y-96558123D01*
X73302293Y-96551287D01*
X73307435Y-96544645D01*
X73312957Y-96538211D01*
X73318860Y-96532001D01*
X73325071Y-96526097D01*
X73331505Y-96520575D01*
X73338147Y-96515433D01*
X73344983Y-96510672D01*
X73351997Y-96506293D01*
X73359176Y-96502294D01*
X73366503Y-96498675D01*
X73373965Y-96495438D01*
X73381545Y-96492582D01*
X73389230Y-96490106D01*
X73397004Y-96488011D01*
X73404853Y-96486297D01*
X73412761Y-96484964D01*
X73420714Y-96484012D01*
X73428696Y-96483441D01*
X73436694Y-96483251D01*
X73444691Y-96483441D01*
X73452674Y-96484012D01*
X73460627Y-96484964D01*
X73468535Y-96486297D01*
X73476383Y-96488011D01*
X73484158Y-96490106D01*
X73491842Y-96492582D01*
X73499423Y-96495438D01*
X73506884Y-96498675D01*
X73514212Y-96502294D01*
X73521390Y-96506293D01*
X73528405Y-96510672D01*
X73535240Y-96515433D01*
X73541883Y-96520575D01*
X73548317Y-96526097D01*
X73554527Y-96532001D01*
X73632893Y-96606584D01*
X73714268Y-96676795D01*
X73798504Y-96742572D01*
X73885454Y-96803855D01*
X73974970Y-96860583D01*
X74066906Y-96912696D01*
X74161113Y-96960133D01*
X74257444Y-97002834D01*
X74355751Y-97040737D01*
X74455888Y-97073784D01*
X74557706Y-97101912D01*
X74661058Y-97125062D01*
X74765797Y-97143173D01*
X74871775Y-97156185D01*
X74978846Y-97164036D01*
X75086860Y-97166667D01*
X75198185Y-97163842D01*
X75308068Y-97155459D01*
X75416371Y-97141655D01*
X75522959Y-97122568D01*
X75627693Y-97098334D01*
X75730436Y-97069090D01*
X75831051Y-97034975D01*
X75929402Y-96996125D01*
X76025349Y-96952677D01*
X76118758Y-96904769D01*
X76209489Y-96852537D01*
X76297407Y-96796120D01*
X76382373Y-96735653D01*
X76464251Y-96671275D01*
X76542904Y-96603123D01*
X76618193Y-96531333D01*
X76689983Y-96456044D01*
X76758135Y-96377391D01*
X76822513Y-96295513D01*
X76882980Y-96210547D01*
X76939397Y-96122630D01*
X76991629Y-96031898D01*
X77039537Y-95938490D01*
X77082985Y-95842542D01*
X77121835Y-95744192D01*
X77155950Y-95643576D01*
X77185194Y-95540833D01*
X77209428Y-95436099D01*
X77228515Y-95329512D01*
X77242319Y-95221208D01*
X77250702Y-95111325D01*
X77253527Y-95000000D01*
X77250702Y-94888675D01*
X77242319Y-94778793D01*
X77228515Y-94670489D01*
X77209428Y-94563901D01*
X77185194Y-94459167D01*
X77155950Y-94356424D01*
X77121835Y-94255809D01*
X77082985Y-94157459D01*
X77039537Y-94061511D01*
X76991629Y-93968103D01*
X76939397Y-93877371D01*
X76882980Y-93789453D01*
X76822513Y-93704487D01*
X76758135Y-93622609D01*
X76689983Y-93543957D01*
X76618193Y-93468667D01*
X76542904Y-93396877D01*
X76464251Y-93328725D01*
X76382373Y-93264347D01*
X76297407Y-93203881D01*
X76209489Y-93147463D01*
X76118758Y-93095231D01*
X76025349Y-93047323D01*
X75929402Y-93003875D01*
X75831051Y-92965025D01*
X75730436Y-92930910D01*
X75627693Y-92901667D01*
X75522959Y-92877433D01*
X75416371Y-92858345D01*
X75308068Y-92844541D01*
X75198185Y-92836158D01*
X75086860Y-92833334D01*
X74989840Y-92835479D01*
X74893903Y-92841853D01*
X74799138Y-92852367D01*
X74705637Y-92866929D01*
X74613491Y-92885448D01*
X74522788Y-92907834D01*
X74433621Y-92933996D01*
X74346079Y-92963844D01*
X74260253Y-92997286D01*
X74176233Y-93034233D01*
X74094110Y-93074593D01*
X74013974Y-93118275D01*
X73860025Y-93215245D01*
X73715110Y-93324417D01*
X73579954Y-93445066D01*
X73455278Y-93576465D01*
X73341808Y-93717890D01*
X73240267Y-93868615D01*
X73194195Y-93947238D01*
X73151378Y-94027914D01*
X73111904Y-94110552D01*
X73075864Y-94195061D01*
X73043350Y-94281352D01*
X73014451Y-94369332D01*
X72989258Y-94458912D01*
X72967860Y-94550000D01*
X73302194Y-94215334D01*
X73308404Y-94209430D01*
X73314838Y-94203908D01*
X73321480Y-94198766D01*
X73328316Y-94194005D01*
X73335331Y-94189626D01*
X73342509Y-94185627D01*
X73349837Y-94182008D01*
X73357298Y-94178771D01*
X73364878Y-94175915D01*
X73372563Y-94173439D01*
X73380337Y-94171344D01*
X73388186Y-94169630D01*
X73396094Y-94168297D01*
X73404047Y-94167345D01*
X73412030Y-94166774D01*
X73420027Y-94166584D01*
X73428025Y-94166774D01*
X73436007Y-94167345D01*
X73443960Y-94168297D01*
X73451868Y-94169630D01*
X73459717Y-94171344D01*
X73467491Y-94173439D01*
X73475176Y-94175915D01*
X73482756Y-94178771D01*
X73490218Y-94182008D01*
X73497545Y-94185627D01*
X73504723Y-94189626D01*
X73511738Y-94194005D01*
X73518574Y-94198766D01*
X73525216Y-94203908D01*
X73531650Y-94209430D01*
X73537860Y-94215334D01*
X73543764Y-94221544D01*
X73549286Y-94227978D01*
X73554428Y-94234620D01*
X73559188Y-94241456D01*
X73563568Y-94248471D01*
X73567567Y-94255649D01*
X73571185Y-94262976D01*
X73574423Y-94270438D01*
X73577279Y-94278018D01*
X73579755Y-94285703D01*
X73581850Y-94293477D01*
X73583563Y-94301326D01*
X73584896Y-94309234D01*
X73585849Y-94317187D01*
X73586420Y-94325169D01*
X73586610Y-94333167D01*
X73586420Y-94341164D01*
X73585849Y-94349147D01*
X73584896Y-94357100D01*
X73583563Y-94365008D01*
X73581850Y-94372857D01*
X73579755Y-94380631D01*
X73577279Y-94388316D01*
X73574423Y-94395896D01*
X73571185Y-94403357D01*
X73567567Y-94410685D01*
X73563568Y-94417863D01*
X73559188Y-94424878D01*
X73554428Y-94431714D01*
X73549286Y-94438356D01*
X73543764Y-94444790D01*
X73537860Y-94451000D01*
X72871194Y-95117667D01*
X72870491Y-95118328D01*
X72869761Y-95118941D01*
X72869006Y-95119512D01*
X72868230Y-95120047D01*
X72867437Y-95120553D01*
X72866629Y-95121036D01*
X72864985Y-95121958D01*
X72863326Y-95122865D01*
X72861678Y-95123807D01*
X72860867Y-95124308D01*
X72860069Y-95124835D01*
X72859288Y-95125398D01*
X72858527Y-95126000D01*
X72853757Y-95129977D01*
X72848933Y-95133880D01*
X72844031Y-95137666D01*
X72841543Y-95139501D01*
X72839027Y-95141292D01*
X72836480Y-95143031D01*
X72833898Y-95144714D01*
X72831279Y-95146336D01*
X72828621Y-95147891D01*
X72825919Y-95149373D01*
X72823172Y-95150778D01*
X72820375Y-95152100D01*
X72817527Y-95153333D01*
X72813754Y-95154966D01*
X72809937Y-95156490D01*
X72806079Y-95157906D01*
X72802183Y-95159214D01*
X72798252Y-95160414D01*
X72794288Y-95161507D01*
X72790296Y-95162494D01*
X72786277Y-95163375D01*
X72782234Y-95164150D01*
X72778171Y-95164821D01*
X72774091Y-95165387D01*
X72769996Y-95165849D01*
X72765889Y-95166207D01*
X72761773Y-95166463D01*
X72757651Y-95166616D01*
X72753527Y-95166667D01*
X72749387Y-95166619D01*
X72745220Y-95166474D01*
X72741029Y-95166227D01*
X72736819Y-95165875D01*
X72732593Y-95165413D01*
X72728355Y-95164838D01*
X72724110Y-95164146D01*
X72719860Y-95163333D01*
X72719426Y-95163232D01*
X72719000Y-95163116D01*
X72718168Y-95162843D01*
X72717360Y-95162522D01*
X72716574Y-95162161D01*
X72715805Y-95161767D01*
X72715050Y-95161347D01*
X72713569Y-95160458D01*
X72712103Y-95159554D01*
X72711368Y-95159114D01*
X72710626Y-95158692D01*
X72709874Y-95158296D01*
X72709110Y-95157933D01*
X72708328Y-95157609D01*
X72707527Y-95157333D01*
X72704359Y-95156365D01*
X72701229Y-95155334D01*
X72698136Y-95154244D01*
X72695079Y-95153094D01*
X72692057Y-95151885D01*
X72689070Y-95150618D01*
X72683194Y-95147917D01*
X72677442Y-95144996D01*
X72671808Y-95141864D01*
X72666283Y-95138530D01*
X72660860Y-95135000D01*
X72658486Y-95133431D01*
X72656121Y-95131948D01*
X72651443Y-95129083D01*
X72649148Y-95127624D01*
X72646891Y-95126094D01*
X72645780Y-95125290D01*
X72644682Y-95124454D01*
X72643597Y-95123581D01*
X72642527Y-95122667D01*
X72639125Y-95119506D01*
X72635798Y-95116275D01*
X72632548Y-95112971D01*
X72629381Y-95109594D01*
X72626300Y-95106142D01*
X72623308Y-95102616D01*
X72620410Y-95099013D01*
X72617610Y-95095333D01*
X72614912Y-95091575D01*
X72612319Y-95087738D01*
X72609835Y-95083821D01*
X72607464Y-95079823D01*
X72605211Y-95075743D01*
X72603079Y-95071579D01*
X72601072Y-95067332D01*
X72599194Y-95063000D01*
X72599193Y-95062969D01*
X72599190Y-95062937D01*
X72599185Y-95062906D01*
X72599179Y-95062875D01*
X72599170Y-95062844D01*
X72599161Y-95062812D01*
X72599149Y-95062781D01*
X72599136Y-95062750D01*
X72599106Y-95062687D01*
X72599071Y-95062625D01*
X72599030Y-95062562D01*
X72598985Y-95062500D01*
X72598936Y-95062437D01*
X72598884Y-95062375D01*
X72598829Y-95062312D01*
X72598772Y-95062250D01*
X72598651Y-95062125D01*
X72598527Y-95062000D01*
X72265193Y-94228667D01*
X72262195Y-94220635D01*
X72259635Y-94212548D01*
X72257506Y-94204420D01*
X72255804Y-94196265D01*
X72254522Y-94188096D01*
X72253655Y-94179926D01*
X72253197Y-94171770D01*
X72253141Y-94163641D01*
X72253484Y-94155552D01*
X72254218Y-94147517D01*
X72255338Y-94139550D01*
X72256838Y-94131665D01*
X72258713Y-94123874D01*
X72260956Y-94116192D01*
X72263563Y-94108632D01*
X72266527Y-94101208D01*
X72269842Y-94093934D01*
X72273504Y-94086822D01*
X72277505Y-94079887D01*
X72281841Y-94073142D01*
X72286505Y-94066602D01*
X72291492Y-94060278D01*
X72296796Y-94054186D01*
X72302412Y-94048338D01*
X72308334Y-94042749D01*
X72314555Y-94037432D01*
X72321070Y-94032400D01*
X72327874Y-94027667D01*
X72334961Y-94023247D01*
X72342325Y-94019154D01*
X72349960Y-94015400D01*
X72357860Y-94012000D01*
X72357861Y-94012000D01*
X72365923Y-94009003D01*
X72374038Y-94006446D01*
X72382192Y-94004322D01*
X72390371Y-94002625D01*
X72398562Y-94001351D01*
X72406751Y-94000492D01*
X72414925Y-94000044D01*
X72423069Y-94000000D01*
X72431170Y-94000355D01*
X72439215Y-94001102D01*
X72447189Y-94002236D01*
X72455079Y-94003750D01*
X72462872Y-94005640D01*
X72470553Y-94007899D01*
X72478109Y-94010521D01*
X72485527Y-94013500D01*
X72492792Y-94016831D01*
X72499892Y-94020508D01*
X72506811Y-94024525D01*
X72513538Y-94028875D01*
X72520057Y-94033554D01*
X72526355Y-94038555D01*
X72532419Y-94043872D01*
X72538235Y-94049500D01*
X72543790Y-94055433D01*
X72549069Y-94061664D01*
X72554059Y-94068189D01*
X72558746Y-94075000D01*
X72563117Y-94082093D01*
X72567157Y-94089461D01*
X72570854Y-94097099D01*
X72574194Y-94105000D01*
X72673861Y-94354334D01*
X72702697Y-94255196D01*
X72735457Y-94157782D01*
X72772048Y-94062186D01*
X72812380Y-93968501D01*
X72856360Y-93876820D01*
X72903895Y-93787236D01*
X72954895Y-93699844D01*
X73009267Y-93614735D01*
X73066919Y-93532004D01*
X73127759Y-93451743D01*
X73191696Y-93374047D01*
X73258638Y-93299008D01*
X73328492Y-93226719D01*
X73401167Y-93157275D01*
X73476570Y-93090768D01*
X73554610Y-93027292D01*
X73635196Y-92966940D01*
X73718234Y-92909805D01*
X73803633Y-92855981D01*
X73891302Y-92805561D01*
X73981147Y-92758638D01*
X74073078Y-92715306D01*
X74167003Y-92675658D01*
X74262829Y-92639787D01*
X74360464Y-92607787D01*
X74459818Y-92579750D01*
X74560797Y-92555771D01*
X74663309Y-92535943D01*
X74767264Y-92520358D01*
X74872569Y-92509110D01*
X74979131Y-92502294D01*
X75086860Y-92500001D01*
X75215330Y-92503259D01*
G37*
X75215330Y-92503259D02*
X75342133Y-92512930D01*
X75467113Y-92528855D01*
X75590110Y-92550875D01*
X75710967Y-92578834D01*
X75829524Y-92612571D01*
X75945625Y-92651929D01*
X76059110Y-92696750D01*
X76169822Y-92746876D01*
X76277602Y-92802149D01*
X76382293Y-92862410D01*
X76483735Y-92927500D01*
X76581771Y-92997263D01*
X76676243Y-93071540D01*
X76766992Y-93150171D01*
X76853860Y-93233000D01*
X76936689Y-93319869D01*
X77015321Y-93410618D01*
X77089597Y-93505089D01*
X77159360Y-93603125D01*
X77224451Y-93704568D01*
X77284711Y-93809258D01*
X77339984Y-93917038D01*
X77390110Y-94027750D01*
X77434931Y-94141236D01*
X77474289Y-94257336D01*
X77508027Y-94375894D01*
X77535985Y-94496750D01*
X77558005Y-94619747D01*
X77573930Y-94744727D01*
X77583601Y-94871531D01*
X77586860Y-95000000D01*
X77583601Y-95128470D01*
X77573930Y-95255274D01*
X77558005Y-95380253D01*
X77535985Y-95503250D01*
X77508027Y-95624107D01*
X77474289Y-95742664D01*
X77434931Y-95858765D01*
X77390110Y-95972250D01*
X77339984Y-96082962D01*
X77284711Y-96190742D01*
X77224450Y-96295433D01*
X77159360Y-96396875D01*
X77089597Y-96494911D01*
X77015321Y-96589383D01*
X76936689Y-96680132D01*
X76853860Y-96767000D01*
X76766992Y-96849829D01*
X76676243Y-96928461D01*
X76581771Y-97002737D01*
X76483735Y-97072500D01*
X76382292Y-97137591D01*
X76277602Y-97197852D01*
X76169822Y-97253124D01*
X76059110Y-97303250D01*
X75945625Y-97348071D01*
X75829524Y-97387430D01*
X75710966Y-97421167D01*
X75590110Y-97449125D01*
X75467113Y-97471146D01*
X75342133Y-97487070D01*
X75215330Y-97496741D01*
X75086860Y-97500000D01*
X74962169Y-97496965D01*
X74838585Y-97487906D01*
X74716274Y-97472892D01*
X74595407Y-97451995D01*
X74476151Y-97425283D01*
X74358675Y-97392826D01*
X74243147Y-97354695D01*
X74129735Y-97310959D01*
X74018609Y-97261687D01*
X73909937Y-97206950D01*
X73803886Y-97146818D01*
X73700626Y-97081360D01*
X73600325Y-97010646D01*
X73503152Y-96934746D01*
X73409274Y-96853730D01*
X73318860Y-96767667D01*
X73312957Y-96761457D01*
X73307435Y-96755023D01*
X73302293Y-96748381D01*
X73297532Y-96741545D01*
X73293153Y-96734530D01*
X73289154Y-96727352D01*
X73285535Y-96720024D01*
X73282298Y-96712563D01*
X73279442Y-96704982D01*
X73276966Y-96697298D01*
X73274871Y-96689523D01*
X73273157Y-96681675D01*
X73271824Y-96673767D01*
X73270872Y-96665814D01*
X73270301Y-96657831D01*
X73270111Y-96649834D01*
X73270301Y-96641836D01*
X73270872Y-96633853D01*
X73271824Y-96625901D01*
X73273157Y-96617992D01*
X73274871Y-96610144D01*
X73276966Y-96602370D01*
X73279442Y-96594685D01*
X73282298Y-96587104D01*
X73285535Y-96579643D01*
X73289154Y-96572316D01*
X73293153Y-96565137D01*
X73297532Y-96558123D01*
X73302293Y-96551287D01*
X73307435Y-96544645D01*
X73312957Y-96538211D01*
X73318860Y-96532001D01*
X73325071Y-96526097D01*
X73331505Y-96520575D01*
X73338147Y-96515433D01*
X73344983Y-96510672D01*
X73351997Y-96506293D01*
X73359176Y-96502294D01*
X73366503Y-96498675D01*
X73373965Y-96495438D01*
X73381545Y-96492582D01*
X73389230Y-96490106D01*
X73397004Y-96488011D01*
X73404853Y-96486297D01*
X73412761Y-96484964D01*
X73420714Y-96484012D01*
X73428696Y-96483441D01*
X73436694Y-96483251D01*
X73444691Y-96483441D01*
X73452674Y-96484012D01*
X73460627Y-96484964D01*
X73468535Y-96486297D01*
X73476383Y-96488011D01*
X73484158Y-96490106D01*
X73491842Y-96492582D01*
X73499423Y-96495438D01*
X73506884Y-96498675D01*
X73514212Y-96502294D01*
X73521390Y-96506293D01*
X73528405Y-96510672D01*
X73535240Y-96515433D01*
X73541883Y-96520575D01*
X73548317Y-96526097D01*
X73554527Y-96532001D01*
X73632893Y-96606584D01*
X73714268Y-96676795D01*
X73798504Y-96742572D01*
X73885454Y-96803855D01*
X73974970Y-96860583D01*
X74066906Y-96912696D01*
X74161113Y-96960133D01*
X74257444Y-97002834D01*
X74355751Y-97040737D01*
X74455888Y-97073784D01*
X74557706Y-97101912D01*
X74661058Y-97125062D01*
X74765797Y-97143173D01*
X74871775Y-97156185D01*
X74978846Y-97164036D01*
X75086860Y-97166667D01*
X75198185Y-97163842D01*
X75308068Y-97155459D01*
X75416371Y-97141655D01*
X75522959Y-97122568D01*
X75627693Y-97098334D01*
X75730436Y-97069090D01*
X75831051Y-97034975D01*
X75929402Y-96996125D01*
X76025349Y-96952677D01*
X76118758Y-96904769D01*
X76209489Y-96852537D01*
X76297407Y-96796120D01*
X76382373Y-96735653D01*
X76464251Y-96671275D01*
X76542904Y-96603123D01*
X76618193Y-96531333D01*
X76689983Y-96456044D01*
X76758135Y-96377391D01*
X76822513Y-96295513D01*
X76882980Y-96210547D01*
X76939397Y-96122630D01*
X76991629Y-96031898D01*
X77039537Y-95938490D01*
X77082985Y-95842542D01*
X77121835Y-95744192D01*
X77155950Y-95643576D01*
X77185194Y-95540833D01*
X77209428Y-95436099D01*
X77228515Y-95329512D01*
X77242319Y-95221208D01*
X77250702Y-95111325D01*
X77253527Y-95000000D01*
X77250702Y-94888675D01*
X77242319Y-94778793D01*
X77228515Y-94670489D01*
X77209428Y-94563901D01*
X77185194Y-94459167D01*
X77155950Y-94356424D01*
X77121835Y-94255809D01*
X77082985Y-94157459D01*
X77039537Y-94061511D01*
X76991629Y-93968103D01*
X76939397Y-93877371D01*
X76882980Y-93789453D01*
X76822513Y-93704487D01*
X76758135Y-93622609D01*
X76689983Y-93543957D01*
X76618193Y-93468667D01*
X76542904Y-93396877D01*
X76464251Y-93328725D01*
X76382373Y-93264347D01*
X76297407Y-93203881D01*
X76209489Y-93147463D01*
X76118758Y-93095231D01*
X76025349Y-93047323D01*
X75929402Y-93003875D01*
X75831051Y-92965025D01*
X75730436Y-92930910D01*
X75627693Y-92901667D01*
X75522959Y-92877433D01*
X75416371Y-92858345D01*
X75308068Y-92844541D01*
X75198185Y-92836158D01*
X75086860Y-92833334D01*
X74989840Y-92835479D01*
X74893903Y-92841853D01*
X74799138Y-92852367D01*
X74705637Y-92866929D01*
X74613491Y-92885448D01*
X74522788Y-92907834D01*
X74433621Y-92933996D01*
X74346079Y-92963844D01*
X74260253Y-92997286D01*
X74176233Y-93034233D01*
X74094110Y-93074593D01*
X74013974Y-93118275D01*
X73860025Y-93215245D01*
X73715110Y-93324417D01*
X73579954Y-93445066D01*
X73455278Y-93576465D01*
X73341808Y-93717890D01*
X73240267Y-93868615D01*
X73194195Y-93947238D01*
X73151378Y-94027914D01*
X73111904Y-94110552D01*
X73075864Y-94195061D01*
X73043350Y-94281352D01*
X73014451Y-94369332D01*
X72989258Y-94458912D01*
X72967860Y-94550000D01*
X73302194Y-94215334D01*
X73308404Y-94209430D01*
X73314838Y-94203908D01*
X73321480Y-94198766D01*
X73328316Y-94194005D01*
X73335331Y-94189626D01*
X73342509Y-94185627D01*
X73349837Y-94182008D01*
X73357298Y-94178771D01*
X73364878Y-94175915D01*
X73372563Y-94173439D01*
X73380337Y-94171344D01*
X73388186Y-94169630D01*
X73396094Y-94168297D01*
X73404047Y-94167345D01*
X73412030Y-94166774D01*
X73420027Y-94166584D01*
X73428025Y-94166774D01*
X73436007Y-94167345D01*
X73443960Y-94168297D01*
X73451868Y-94169630D01*
X73459717Y-94171344D01*
X73467491Y-94173439D01*
X73475176Y-94175915D01*
X73482756Y-94178771D01*
X73490218Y-94182008D01*
X73497545Y-94185627D01*
X73504723Y-94189626D01*
X73511738Y-94194005D01*
X73518574Y-94198766D01*
X73525216Y-94203908D01*
X73531650Y-94209430D01*
X73537860Y-94215334D01*
X73543764Y-94221544D01*
X73549286Y-94227978D01*
X73554428Y-94234620D01*
X73559188Y-94241456D01*
X73563568Y-94248471D01*
X73567567Y-94255649D01*
X73571185Y-94262976D01*
X73574423Y-94270438D01*
X73577279Y-94278018D01*
X73579755Y-94285703D01*
X73581850Y-94293477D01*
X73583563Y-94301326D01*
X73584896Y-94309234D01*
X73585849Y-94317187D01*
X73586420Y-94325169D01*
X73586610Y-94333167D01*
X73586420Y-94341164D01*
X73585849Y-94349147D01*
X73584896Y-94357100D01*
X73583563Y-94365008D01*
X73581850Y-94372857D01*
X73579755Y-94380631D01*
X73577279Y-94388316D01*
X73574423Y-94395896D01*
X73571185Y-94403357D01*
X73567567Y-94410685D01*
X73563568Y-94417863D01*
X73559188Y-94424878D01*
X73554428Y-94431714D01*
X73549286Y-94438356D01*
X73543764Y-94444790D01*
X73537860Y-94451000D01*
X72871194Y-95117667D01*
X72870491Y-95118328D01*
X72869761Y-95118941D01*
X72869006Y-95119512D01*
X72868230Y-95120047D01*
X72867437Y-95120553D01*
X72866629Y-95121036D01*
X72864985Y-95121958D01*
X72863326Y-95122865D01*
X72861678Y-95123807D01*
X72860867Y-95124308D01*
X72860069Y-95124835D01*
X72859288Y-95125398D01*
X72858527Y-95126000D01*
X72853757Y-95129977D01*
X72848933Y-95133880D01*
X72844031Y-95137666D01*
X72841543Y-95139501D01*
X72839027Y-95141292D01*
X72836480Y-95143031D01*
X72833898Y-95144714D01*
X72831279Y-95146336D01*
X72828621Y-95147891D01*
X72825919Y-95149373D01*
X72823172Y-95150778D01*
X72820375Y-95152100D01*
X72817527Y-95153333D01*
X72813754Y-95154966D01*
X72809937Y-95156490D01*
X72806079Y-95157906D01*
X72802183Y-95159214D01*
X72798252Y-95160414D01*
X72794288Y-95161507D01*
X72790296Y-95162494D01*
X72786277Y-95163375D01*
X72782234Y-95164150D01*
X72778171Y-95164821D01*
X72774091Y-95165387D01*
X72769996Y-95165849D01*
X72765889Y-95166207D01*
X72761773Y-95166463D01*
X72757651Y-95166616D01*
X72753527Y-95166667D01*
X72749387Y-95166619D01*
X72745220Y-95166474D01*
X72741029Y-95166227D01*
X72736819Y-95165875D01*
X72732593Y-95165413D01*
X72728355Y-95164838D01*
X72724110Y-95164146D01*
X72719860Y-95163333D01*
X72719426Y-95163232D01*
X72719000Y-95163116D01*
X72718168Y-95162843D01*
X72717360Y-95162522D01*
X72716574Y-95162161D01*
X72715805Y-95161767D01*
X72715050Y-95161347D01*
X72713569Y-95160458D01*
X72712103Y-95159554D01*
X72711368Y-95159114D01*
X72710626Y-95158692D01*
X72709874Y-95158296D01*
X72709110Y-95157933D01*
X72708328Y-95157609D01*
X72707527Y-95157333D01*
X72704359Y-95156365D01*
X72701229Y-95155334D01*
X72698136Y-95154244D01*
X72695079Y-95153094D01*
X72692057Y-95151885D01*
X72689070Y-95150618D01*
X72683194Y-95147917D01*
X72677442Y-95144996D01*
X72671808Y-95141864D01*
X72666283Y-95138530D01*
X72660860Y-95135000D01*
X72658486Y-95133431D01*
X72656121Y-95131948D01*
X72651443Y-95129083D01*
X72649148Y-95127624D01*
X72646891Y-95126094D01*
X72645780Y-95125290D01*
X72644682Y-95124454D01*
X72643597Y-95123581D01*
X72642527Y-95122667D01*
X72639125Y-95119506D01*
X72635798Y-95116275D01*
X72632548Y-95112971D01*
X72629381Y-95109594D01*
X72626300Y-95106142D01*
X72623308Y-95102616D01*
X72620410Y-95099013D01*
X72617610Y-95095333D01*
X72614912Y-95091575D01*
X72612319Y-95087738D01*
X72609835Y-95083821D01*
X72607464Y-95079823D01*
X72605211Y-95075743D01*
X72603079Y-95071579D01*
X72601072Y-95067332D01*
X72599194Y-95063000D01*
X72599193Y-95062969D01*
X72599190Y-95062937D01*
X72599185Y-95062906D01*
X72599179Y-95062875D01*
X72599170Y-95062844D01*
X72599161Y-95062812D01*
X72599149Y-95062781D01*
X72599136Y-95062750D01*
X72599106Y-95062687D01*
X72599071Y-95062625D01*
X72599030Y-95062562D01*
X72598985Y-95062500D01*
X72598936Y-95062437D01*
X72598884Y-95062375D01*
X72598829Y-95062312D01*
X72598772Y-95062250D01*
X72598651Y-95062125D01*
X72598527Y-95062000D01*
X72265193Y-94228667D01*
X72262195Y-94220635D01*
X72259635Y-94212548D01*
X72257506Y-94204420D01*
X72255804Y-94196265D01*
X72254522Y-94188096D01*
X72253655Y-94179926D01*
X72253197Y-94171770D01*
X72253141Y-94163641D01*
X72253484Y-94155552D01*
X72254218Y-94147517D01*
X72255338Y-94139550D01*
X72256838Y-94131665D01*
X72258713Y-94123874D01*
X72260956Y-94116192D01*
X72263563Y-94108632D01*
X72266527Y-94101208D01*
X72269842Y-94093934D01*
X72273504Y-94086822D01*
X72277505Y-94079887D01*
X72281841Y-94073142D01*
X72286505Y-94066602D01*
X72291492Y-94060278D01*
X72296796Y-94054186D01*
X72302412Y-94048338D01*
X72308334Y-94042749D01*
X72314555Y-94037432D01*
X72321070Y-94032400D01*
X72327874Y-94027667D01*
X72334961Y-94023247D01*
X72342325Y-94019154D01*
X72349960Y-94015400D01*
X72357860Y-94012000D01*
X72357861Y-94012000D01*
X72365923Y-94009003D01*
X72374038Y-94006446D01*
X72382192Y-94004322D01*
X72390371Y-94002625D01*
X72398562Y-94001351D01*
X72406751Y-94000492D01*
X72414925Y-94000044D01*
X72423069Y-94000000D01*
X72431170Y-94000355D01*
X72439215Y-94001102D01*
X72447189Y-94002236D01*
X72455079Y-94003750D01*
X72462872Y-94005640D01*
X72470553Y-94007899D01*
X72478109Y-94010521D01*
X72485527Y-94013500D01*
X72492792Y-94016831D01*
X72499892Y-94020508D01*
X72506811Y-94024525D01*
X72513538Y-94028875D01*
X72520057Y-94033554D01*
X72526355Y-94038555D01*
X72532419Y-94043872D01*
X72538235Y-94049500D01*
X72543790Y-94055433D01*
X72549069Y-94061664D01*
X72554059Y-94068189D01*
X72558746Y-94075000D01*
X72563117Y-94082093D01*
X72567157Y-94089461D01*
X72570854Y-94097099D01*
X72574194Y-94105000D01*
X72673861Y-94354334D01*
X72702697Y-94255196D01*
X72735457Y-94157782D01*
X72772048Y-94062186D01*
X72812380Y-93968501D01*
X72856360Y-93876820D01*
X72903895Y-93787236D01*
X72954895Y-93699844D01*
X73009267Y-93614735D01*
X73066919Y-93532004D01*
X73127759Y-93451743D01*
X73191696Y-93374047D01*
X73258638Y-93299008D01*
X73328492Y-93226719D01*
X73401167Y-93157275D01*
X73476570Y-93090768D01*
X73554610Y-93027292D01*
X73635196Y-92966940D01*
X73718234Y-92909805D01*
X73803633Y-92855981D01*
X73891302Y-92805561D01*
X73981147Y-92758638D01*
X74073078Y-92715306D01*
X74167003Y-92675658D01*
X74262829Y-92639787D01*
X74360464Y-92607787D01*
X74459818Y-92579750D01*
X74560797Y-92555771D01*
X74663309Y-92535943D01*
X74767264Y-92520358D01*
X74872569Y-92509110D01*
X74979131Y-92502294D01*
X75086860Y-92500001D01*
X75215330Y-92503259D01*
D10*
X76120039Y-125465892D02*
X76058517Y-125495976D01*
X76655998Y-124903154D02*
X76641087Y-124950289D01*
X74806642Y-125709600D02*
X74638292Y-125695096D01*
X76178924Y-124080577D02*
X76288357Y-124148548D01*
X73337847Y-124518179D02*
X73360695Y-124472758D01*
X74806642Y-123805176D02*
X74892749Y-123801480D01*
D11*
X75785970Y-128667334D02*
X75673076Y-128702315D01*
D10*
X74032012Y-125551076D02*
X73901484Y-125495976D01*
X75927989Y-123963700D02*
X76058517Y-124018801D01*
D11*
X73284467Y-128173587D02*
X73284467Y-128173587D01*
D13*
X74918888Y-62500205D02*
X74901773Y-62500638D01*
X74901773Y-62500638D02*
X74884888Y-62501923D01*
X74884888Y-62501923D02*
X74868253Y-62504039D01*
X74868253Y-62504039D02*
X74851889Y-62506964D01*
X74851889Y-62506964D02*
X74835817Y-62510679D01*
X74835817Y-62510679D02*
X74820056Y-62515161D01*
X74820056Y-62515161D02*
X74804629Y-62520389D01*
X74804629Y-62520389D02*
X74789554Y-62526343D01*
X74789554Y-62526343D02*
X74774853Y-62533000D01*
X74774853Y-62533000D02*
X74760547Y-62540341D01*
X74760547Y-62540341D02*
X74746656Y-62548344D01*
X74746656Y-62548344D02*
X74733199Y-62556988D01*
X74733199Y-62556988D02*
X74720199Y-62566251D01*
X74720199Y-62566251D02*
X74707676Y-62576113D01*
X74707676Y-62576113D02*
X74695650Y-62586552D01*
X74695650Y-62586552D02*
X74684141Y-62597548D01*
X74684141Y-62597548D02*
X74673170Y-62609079D01*
X74673170Y-62609079D02*
X74662759Y-62621124D01*
X74662759Y-62621124D02*
X74652926Y-62633663D01*
X74652926Y-62633663D02*
X74643694Y-62646673D01*
X74643694Y-62646673D02*
X74635082Y-62660133D01*
X74635082Y-62660133D02*
X74627111Y-62674024D01*
X74627111Y-62674024D02*
X74619802Y-62688323D01*
X74619802Y-62688323D02*
X74613174Y-62703009D01*
X74613174Y-62703009D02*
X74607250Y-62718062D01*
X74607250Y-62718062D02*
X74602048Y-62733460D01*
X74602048Y-62733460D02*
X74597591Y-62749182D01*
X74597591Y-62749182D02*
X74593898Y-62765207D01*
X74593898Y-62765207D02*
X74590990Y-62781513D01*
X74590990Y-62781513D02*
X74588887Y-62798081D01*
X74588887Y-62798081D02*
X74587610Y-62814888D01*
X74587610Y-62814888D02*
X74587180Y-62831913D01*
X74587180Y-62831913D02*
X74587180Y-64359814D01*
X74587180Y-64359814D02*
X74587613Y-64376930D01*
X74587613Y-64376930D02*
X74588898Y-64393815D01*
X74588898Y-64393815D02*
X74591014Y-64410450D01*
X74591014Y-64410450D02*
X74593940Y-64426814D01*
X74593940Y-64426814D02*
X74597654Y-64442886D01*
X74597654Y-64442886D02*
X74602136Y-64458647D01*
X74602136Y-64458647D02*
X74607364Y-64474074D01*
X74607364Y-64474074D02*
X74613318Y-64489149D01*
X74613318Y-64489149D02*
X74619976Y-64503850D01*
X74619976Y-64503850D02*
X74627317Y-64518156D01*
X74627317Y-64518156D02*
X74635319Y-64532047D01*
X74635319Y-64532047D02*
X74643963Y-64545503D01*
X74643963Y-64545503D02*
X74653226Y-64558503D01*
X74653226Y-64558503D02*
X74663088Y-64571027D01*
X74663088Y-64571027D02*
X74673528Y-64583053D01*
X74673528Y-64583053D02*
X74684524Y-64594562D01*
X74684524Y-64594562D02*
X74696055Y-64605532D01*
X74696055Y-64605532D02*
X74708100Y-64615944D01*
X74708100Y-64615944D02*
X74720638Y-64625777D01*
X74720638Y-64625777D02*
X74733648Y-64635009D01*
X74733648Y-64635009D02*
X74747109Y-64643621D01*
X74747109Y-64643621D02*
X74760999Y-64651592D01*
X74760999Y-64651592D02*
X74775298Y-64658901D01*
X74775298Y-64658901D02*
X74789985Y-64665529D01*
X74789985Y-64665529D02*
X74805037Y-64671453D01*
X74805037Y-64671453D02*
X74820435Y-64676654D01*
X74820435Y-64676654D02*
X74836157Y-64681112D01*
X74836157Y-64681112D02*
X74852182Y-64684805D01*
X74852182Y-64684805D02*
X74868489Y-64687713D01*
X74868489Y-64687713D02*
X74885056Y-64689816D01*
X74885056Y-64689816D02*
X74901863Y-64691093D01*
X74901863Y-64691093D02*
X74918888Y-64691523D01*
X74918888Y-64691523D02*
X74935914Y-64691090D01*
X74935914Y-64691090D02*
X74952721Y-64689805D01*
X74952721Y-64689805D02*
X74969288Y-64687689D01*
X74969288Y-64687689D02*
X74985595Y-64684763D01*
X74985595Y-64684763D02*
X75001620Y-64681049D01*
X75001620Y-64681049D02*
X75017342Y-64676567D01*
X75017342Y-64676567D02*
X75032740Y-64671339D01*
X75032740Y-64671339D02*
X75047792Y-64665385D01*
X75047792Y-64665385D02*
X75062479Y-64658727D01*
X75062479Y-64658727D02*
X75076778Y-64651386D01*
X75076778Y-64651386D02*
X75090668Y-64643383D01*
X75090668Y-64643383D02*
X75104129Y-64634740D01*
X75104129Y-64634740D02*
X75117139Y-64625476D01*
X75117139Y-64625476D02*
X75129677Y-64615614D01*
X75129677Y-64615614D02*
X75141722Y-64605175D01*
X75141722Y-64605175D02*
X75153253Y-64594179D01*
X75153253Y-64594179D02*
X75164249Y-64582648D01*
X75164249Y-64582648D02*
X75174689Y-64570603D01*
X75174689Y-64570603D02*
X75184551Y-64558065D01*
X75184551Y-64558065D02*
X75193814Y-64545055D01*
X75193814Y-64545055D02*
X75202458Y-64531594D01*
X75202458Y-64531594D02*
X75210461Y-64517704D01*
X75210461Y-64517704D02*
X75217801Y-64503405D01*
X75217801Y-64503405D02*
X75224459Y-64488718D01*
X75224459Y-64488718D02*
X75230413Y-64473666D01*
X75230413Y-64473666D02*
X75235641Y-64458268D01*
X75235641Y-64458268D02*
X75240123Y-64442546D01*
X75240123Y-64442546D02*
X75243838Y-64426521D01*
X75243838Y-64426521D02*
X75246763Y-64410214D01*
X75246763Y-64410214D02*
X75248879Y-64393647D01*
X75248879Y-64393647D02*
X75250164Y-64376840D01*
X75250164Y-64376840D02*
X75250597Y-64359814D01*
X75250597Y-64359814D02*
X75250597Y-62831913D01*
X75250597Y-62831913D02*
X75250167Y-62814888D01*
X75250167Y-62814888D02*
X75248890Y-62798081D01*
X75248890Y-62798081D02*
X75246788Y-62781513D01*
X75246788Y-62781513D02*
X75243879Y-62765207D01*
X75243879Y-62765207D02*
X75240186Y-62749182D01*
X75240186Y-62749182D02*
X75235729Y-62733460D01*
X75235729Y-62733460D02*
X75230527Y-62718062D01*
X75230527Y-62718062D02*
X75224603Y-62703009D01*
X75224603Y-62703009D02*
X75217976Y-62688323D01*
X75217976Y-62688323D02*
X75210666Y-62674024D01*
X75210666Y-62674024D02*
X75202695Y-62660133D01*
X75202695Y-62660133D02*
X75194083Y-62646673D01*
X75194083Y-62646673D02*
X75184851Y-62633663D01*
X75184851Y-62633663D02*
X75175018Y-62621124D01*
X75175018Y-62621124D02*
X75164607Y-62609079D01*
X75164607Y-62609079D02*
X75153636Y-62597548D01*
X75153636Y-62597548D02*
X75142128Y-62586552D01*
X75142128Y-62586552D02*
X75130101Y-62576113D01*
X75130101Y-62576113D02*
X75117578Y-62566251D01*
X75117578Y-62566251D02*
X75104578Y-62556988D01*
X75104578Y-62556988D02*
X75091122Y-62548344D01*
X75091122Y-62548344D02*
X75077230Y-62540341D01*
X75077230Y-62540341D02*
X75062924Y-62533000D01*
X75062924Y-62533000D02*
X75048223Y-62526343D01*
X75048223Y-62526343D02*
X75033148Y-62520389D01*
X75033148Y-62520389D02*
X75017721Y-62515161D01*
X75017721Y-62515161D02*
X75001960Y-62510679D01*
X75001960Y-62510679D02*
X74985888Y-62506964D01*
X74985888Y-62506964D02*
X74969524Y-62504039D01*
X74969524Y-62504039D02*
X74952889Y-62501923D01*
X74952889Y-62501923D02*
X74936004Y-62500638D01*
X74936004Y-62500638D02*
X74918888Y-62500205D01*
X74918888Y-62500205D02*
X74918888Y-62500205D01*
G36*
X74936004Y-62500638D02*
G01*
X74952889Y-62501923D01*
X74969524Y-62504039D01*
X74985888Y-62506964D01*
X75001960Y-62510679D01*
X75017721Y-62515161D01*
X75033148Y-62520389D01*
X75048223Y-62526343D01*
X75062924Y-62533000D01*
X75077230Y-62540341D01*
X75091122Y-62548344D01*
X75104578Y-62556988D01*
X75117578Y-62566251D01*
X75130101Y-62576113D01*
X75142128Y-62586552D01*
X75153636Y-62597548D01*
X75164607Y-62609079D01*
X75175018Y-62621124D01*
X75184851Y-62633663D01*
X75194083Y-62646673D01*
X75202695Y-62660133D01*
X75210666Y-62674024D01*
X75217976Y-62688323D01*
X75224603Y-62703009D01*
X75230527Y-62718062D01*
X75235729Y-62733460D01*
X75240186Y-62749182D01*
X75243879Y-62765207D01*
X75246788Y-62781513D01*
X75248890Y-62798081D01*
X75250167Y-62814888D01*
X75250597Y-62831913D01*
X75250597Y-64359814D01*
X75250164Y-64376840D01*
X75248879Y-64393647D01*
X75246763Y-64410214D01*
X75243838Y-64426521D01*
X75240123Y-64442546D01*
X75235641Y-64458268D01*
X75230413Y-64473666D01*
X75224459Y-64488718D01*
X75217801Y-64503405D01*
X75210461Y-64517704D01*
X75202458Y-64531594D01*
X75193814Y-64545055D01*
X75184551Y-64558065D01*
X75174689Y-64570603D01*
X75164249Y-64582648D01*
X75153253Y-64594179D01*
X75141722Y-64605175D01*
X75129677Y-64615614D01*
X75117139Y-64625476D01*
X75104129Y-64634740D01*
X75090668Y-64643383D01*
X75076778Y-64651386D01*
X75062479Y-64658727D01*
X75047792Y-64665385D01*
X75032740Y-64671339D01*
X75017342Y-64676567D01*
X75001620Y-64681049D01*
X74985595Y-64684763D01*
X74969288Y-64687689D01*
X74952721Y-64689805D01*
X74935914Y-64691090D01*
X74918888Y-64691523D01*
X74901863Y-64691093D01*
X74885056Y-64689816D01*
X74868489Y-64687713D01*
X74852182Y-64684805D01*
X74836157Y-64681112D01*
X74820435Y-64676654D01*
X74805037Y-64671453D01*
X74789985Y-64665529D01*
X74775298Y-64658901D01*
X74760999Y-64651592D01*
X74747109Y-64643621D01*
X74733648Y-64635009D01*
X74720638Y-64625777D01*
X74708100Y-64615944D01*
X74696055Y-64605532D01*
X74684524Y-64594562D01*
X74673528Y-64583053D01*
X74663088Y-64571027D01*
X74653226Y-64558503D01*
X74643963Y-64545503D01*
X74635319Y-64532047D01*
X74627317Y-64518156D01*
X74619976Y-64503850D01*
X74613318Y-64489149D01*
X74607364Y-64474074D01*
X74602136Y-64458647D01*
X74597654Y-64442886D01*
X74593940Y-64426814D01*
X74591014Y-64410450D01*
X74588898Y-64393815D01*
X74587613Y-64376930D01*
X74587180Y-64359814D01*
X74587180Y-62831913D01*
X74587610Y-62814888D01*
X74588887Y-62798081D01*
X74590990Y-62781513D01*
X74593898Y-62765207D01*
X74597591Y-62749182D01*
X74602048Y-62733460D01*
X74607250Y-62718062D01*
X74613174Y-62703009D01*
X74619802Y-62688323D01*
X74627111Y-62674024D01*
X74635082Y-62660133D01*
X74643694Y-62646673D01*
X74652926Y-62633663D01*
X74662759Y-62621124D01*
X74673170Y-62609079D01*
X74684141Y-62597548D01*
X74695650Y-62586552D01*
X74707676Y-62576113D01*
X74720199Y-62566251D01*
X74733199Y-62556988D01*
X74746656Y-62548344D01*
X74760547Y-62540341D01*
X74774853Y-62533000D01*
X74789554Y-62526343D01*
X74804629Y-62520389D01*
X74820056Y-62515161D01*
X74835817Y-62510679D01*
X74851889Y-62506964D01*
X74868253Y-62504039D01*
X74884888Y-62501923D01*
X74901773Y-62500638D01*
X74918888Y-62500205D01*
X74936004Y-62500638D01*
G37*
X74936004Y-62500638D02*
X74952889Y-62501923D01*
X74969524Y-62504039D01*
X74985888Y-62506964D01*
X75001960Y-62510679D01*
X75017721Y-62515161D01*
X75033148Y-62520389D01*
X75048223Y-62526343D01*
X75062924Y-62533000D01*
X75077230Y-62540341D01*
X75091122Y-62548344D01*
X75104578Y-62556988D01*
X75117578Y-62566251D01*
X75130101Y-62576113D01*
X75142128Y-62586552D01*
X75153636Y-62597548D01*
X75164607Y-62609079D01*
X75175018Y-62621124D01*
X75184851Y-62633663D01*
X75194083Y-62646673D01*
X75202695Y-62660133D01*
X75210666Y-62674024D01*
X75217976Y-62688323D01*
X75224603Y-62703009D01*
X75230527Y-62718062D01*
X75235729Y-62733460D01*
X75240186Y-62749182D01*
X75243879Y-62765207D01*
X75246788Y-62781513D01*
X75248890Y-62798081D01*
X75250167Y-62814888D01*
X75250597Y-62831913D01*
X75250597Y-64359814D01*
X75250164Y-64376840D01*
X75248879Y-64393647D01*
X75246763Y-64410214D01*
X75243838Y-64426521D01*
X75240123Y-64442546D01*
X75235641Y-64458268D01*
X75230413Y-64473666D01*
X75224459Y-64488718D01*
X75217801Y-64503405D01*
X75210461Y-64517704D01*
X75202458Y-64531594D01*
X75193814Y-64545055D01*
X75184551Y-64558065D01*
X75174689Y-64570603D01*
X75164249Y-64582648D01*
X75153253Y-64594179D01*
X75141722Y-64605175D01*
X75129677Y-64615614D01*
X75117139Y-64625476D01*
X75104129Y-64634740D01*
X75090668Y-64643383D01*
X75076778Y-64651386D01*
X75062479Y-64658727D01*
X75047792Y-64665385D01*
X75032740Y-64671339D01*
X75017342Y-64676567D01*
X75001620Y-64681049D01*
X74985595Y-64684763D01*
X74969288Y-64687689D01*
X74952721Y-64689805D01*
X74935914Y-64691090D01*
X74918888Y-64691523D01*
X74901863Y-64691093D01*
X74885056Y-64689816D01*
X74868489Y-64687713D01*
X74852182Y-64684805D01*
X74836157Y-64681112D01*
X74820435Y-64676654D01*
X74805037Y-64671453D01*
X74789985Y-64665529D01*
X74775298Y-64658901D01*
X74760999Y-64651592D01*
X74747109Y-64643621D01*
X74733648Y-64635009D01*
X74720638Y-64625777D01*
X74708100Y-64615944D01*
X74696055Y-64605532D01*
X74684524Y-64594562D01*
X74673528Y-64583053D01*
X74663088Y-64571027D01*
X74653226Y-64558503D01*
X74643963Y-64545503D01*
X74635319Y-64532047D01*
X74627317Y-64518156D01*
X74619976Y-64503850D01*
X74613318Y-64489149D01*
X74607364Y-64474074D01*
X74602136Y-64458647D01*
X74597654Y-64442886D01*
X74593940Y-64426814D01*
X74591014Y-64410450D01*
X74588898Y-64393815D01*
X74587613Y-64376930D01*
X74587180Y-64359814D01*
X74587180Y-62831913D01*
X74587610Y-62814888D01*
X74588887Y-62798081D01*
X74590990Y-62781513D01*
X74593898Y-62765207D01*
X74597591Y-62749182D01*
X74602048Y-62733460D01*
X74607250Y-62718062D01*
X74613174Y-62703009D01*
X74619802Y-62688323D01*
X74627111Y-62674024D01*
X74635082Y-62660133D01*
X74643694Y-62646673D01*
X74652926Y-62633663D01*
X74662759Y-62621124D01*
X74673170Y-62609079D01*
X74684141Y-62597548D01*
X74695650Y-62586552D01*
X74707676Y-62576113D01*
X74720199Y-62566251D01*
X74733199Y-62556988D01*
X74746656Y-62548344D01*
X74760547Y-62540341D01*
X74774853Y-62533000D01*
X74789554Y-62526343D01*
X74804629Y-62520389D01*
X74820056Y-62515161D01*
X74835817Y-62510679D01*
X74851889Y-62506964D01*
X74868253Y-62504039D01*
X74884888Y-62501923D01*
X74901773Y-62500638D01*
X74918888Y-62500205D01*
X74936004Y-62500638D01*
D11*
X73456802Y-128297637D02*
X73284467Y-128173587D01*
D10*
X76641087Y-124950289D02*
X76622154Y-124996597D01*
X73621310Y-124184706D02*
X73671645Y-124148548D01*
X76058517Y-124018801D02*
X76178924Y-124080577D01*
D11*
X75031916Y-128799774D02*
X74889932Y-128798354D01*
X75554767Y-128733166D02*
X75431269Y-128759112D01*
D10*
X73489109Y-125213626D02*
X73417710Y-125129957D01*
D11*
X76675542Y-128173587D02*
X76605636Y-128231416D01*
D10*
X75238214Y-125703513D02*
X75153359Y-125709600D01*
X73417710Y-124384819D02*
X73451665Y-124342421D01*
X73574038Y-124222233D02*
X73621310Y-124184706D01*
X75927989Y-125551076D02*
X75859196Y-125575972D01*
X75639979Y-123875452D02*
X75788192Y-123915757D01*
X73286673Y-124708133D02*
X73293221Y-124659524D01*
X75715084Y-125620156D02*
X75639979Y-125639324D01*
X76338692Y-125330070D02*
X76288357Y-125366228D01*
D14*
X157250000Y-123250000D02*
X162650000Y-126249998D01*
X162650000Y-126249998D02*
X157250000Y-129050000D01*
X157250000Y-129050000D02*
X157250000Y-123250000D01*
G36*
X162650000Y-126249998D02*
G01*
X157250000Y-129050000D01*
X157250000Y-123250000D01*
X162650000Y-126249998D01*
G37*
X162650000Y-126249998D02*
X157250000Y-129050000D01*
X157250000Y-123250000D01*
X162650000Y-126249998D01*
D10*
X75153359Y-123805176D02*
X75321710Y-123819681D01*
X75153359Y-125709600D02*
X75067252Y-125713296D01*
X74100805Y-123938804D02*
X74171809Y-123915757D01*
D11*
X73960810Y-128578395D02*
X73795201Y-128499266D01*
D10*
X75788192Y-125599019D02*
X75715084Y-125620156D01*
X76673328Y-124806643D02*
X76666781Y-124855252D01*
X75639979Y-125639324D02*
X75562982Y-125656462D01*
X73360695Y-125042018D02*
X73337847Y-124996597D01*
D13*
X72678579Y-65465170D02*
X72669575Y-65317776D01*
X72669575Y-65317776D02*
X72669934Y-65172403D01*
X72669934Y-65172403D02*
X72679380Y-65029323D01*
X72679380Y-65029323D02*
X72697637Y-64888810D01*
X72697637Y-64888810D02*
X72724427Y-64751138D01*
X72724427Y-64751138D02*
X72759475Y-64616580D01*
X72759475Y-64616580D02*
X72802504Y-64485409D01*
X72802504Y-64485409D02*
X72853237Y-64357901D01*
X72853237Y-64357901D02*
X72911397Y-64234327D01*
X72911397Y-64234327D02*
X72976708Y-64114962D01*
X72976708Y-64114962D02*
X73048894Y-64000079D01*
X73048894Y-64000079D02*
X73127678Y-63889952D01*
X73127678Y-63889952D02*
X73212782Y-63784855D01*
X73212782Y-63784855D02*
X73303932Y-63685060D01*
X73303932Y-63685060D02*
X73400849Y-63590843D01*
X73400849Y-63590843D02*
X73503258Y-63502475D01*
X73503258Y-63502475D02*
X73524038Y-63486786D01*
X73524038Y-63486786D02*
X73545373Y-63472991D01*
X73545373Y-63472991D02*
X73567182Y-63461054D01*
X73567182Y-63461054D02*
X73589387Y-63450939D01*
X73589387Y-63450939D02*
X73611906Y-63442607D01*
X73611906Y-63442607D02*
X73634662Y-63436024D01*
X73634662Y-63436024D02*
X73657574Y-63431151D01*
X73657574Y-63431151D02*
X73680563Y-63427952D01*
X73680563Y-63427952D02*
X73703548Y-63426390D01*
X73703548Y-63426390D02*
X73726451Y-63426429D01*
X73726451Y-63426429D02*
X73749192Y-63428031D01*
X73749192Y-63428031D02*
X73771691Y-63431160D01*
X73771691Y-63431160D02*
X73793868Y-63435778D01*
X73793868Y-63435778D02*
X73815645Y-63441850D01*
X73815645Y-63441850D02*
X73836941Y-63449338D01*
X73836941Y-63449338D02*
X73857676Y-63458205D01*
X73857676Y-63458205D02*
X73877772Y-63468414D01*
X73877772Y-63468414D02*
X73897148Y-63479930D01*
X73897148Y-63479930D02*
X73915725Y-63492714D01*
X73915725Y-63492714D02*
X73933423Y-63506731D01*
X73933423Y-63506731D02*
X73950163Y-63521943D01*
X73950163Y-63521943D02*
X73965865Y-63538313D01*
X73965865Y-63538313D02*
X73980449Y-63555806D01*
X73980449Y-63555806D02*
X73993836Y-63574382D01*
X73993836Y-63574382D02*
X74005946Y-63594008D01*
X74005946Y-63594008D02*
X74016700Y-63614644D01*
X74016700Y-63614644D02*
X74026018Y-63636254D01*
X74026018Y-63636254D02*
X74033821Y-63658803D01*
X74033821Y-63658803D02*
X74040028Y-63682252D01*
X74040028Y-63682252D02*
X74044560Y-63706565D01*
X74044560Y-63706565D02*
X74047337Y-63731705D01*
X74047337Y-63731705D02*
X74048281Y-63757636D01*
X74048281Y-63757636D02*
X74047711Y-63776863D01*
X74047711Y-63776863D02*
X74046020Y-63795866D01*
X74046020Y-63795866D02*
X74043235Y-63814612D01*
X74043235Y-63814612D02*
X74039382Y-63833067D01*
X74039382Y-63833067D02*
X74034489Y-63851200D01*
X74034489Y-63851200D02*
X74028582Y-63868977D01*
X74028582Y-63868977D02*
X74021688Y-63886366D01*
X74021688Y-63886366D02*
X74013834Y-63903332D01*
X74013834Y-63903332D02*
X74005048Y-63919844D01*
X74005048Y-63919844D02*
X73995355Y-63935869D01*
X73995355Y-63935869D02*
X73984783Y-63951374D01*
X73984783Y-63951374D02*
X73973359Y-63966325D01*
X73973359Y-63966325D02*
X73961110Y-63980690D01*
X73961110Y-63980690D02*
X73948063Y-63994436D01*
X73948063Y-63994436D02*
X73934244Y-64007531D01*
X73934244Y-64007531D02*
X73919680Y-64019941D01*
X73919680Y-64019941D02*
X73847125Y-64082761D01*
X73847125Y-64082761D02*
X73778481Y-64149763D01*
X73778481Y-64149763D02*
X73713951Y-64220752D01*
X73713951Y-64220752D02*
X73653739Y-64295530D01*
X73653739Y-64295530D02*
X73598048Y-64373902D01*
X73598048Y-64373902D02*
X73547082Y-64455673D01*
X73547082Y-64455673D02*
X73501043Y-64540646D01*
X73501043Y-64540646D02*
X73460136Y-64628626D01*
X73460136Y-64628626D02*
X73424563Y-64719417D01*
X73424563Y-64719417D02*
X73394528Y-64812822D01*
X73394528Y-64812822D02*
X73370234Y-64908646D01*
X73370234Y-64908646D02*
X73351884Y-65006694D01*
X73351884Y-65006694D02*
X73339682Y-65106769D01*
X73339682Y-65106769D02*
X73333831Y-65208675D01*
X73333831Y-65208675D02*
X73334535Y-65312218D01*
X73334535Y-65312218D02*
X73337408Y-65364541D01*
X73337408Y-65364541D02*
X73341997Y-65417199D01*
X73341997Y-65417199D02*
X73350567Y-65485576D01*
X73350567Y-65485576D02*
X73362073Y-65553065D01*
X73362073Y-65553065D02*
X73376446Y-65619598D01*
X73376446Y-65619598D02*
X73393619Y-65685108D01*
X73393619Y-65685108D02*
X73413525Y-65749525D01*
X73413525Y-65749525D02*
X73436097Y-65812782D01*
X73436097Y-65812782D02*
X73461267Y-65874810D01*
X73461267Y-65874810D02*
X73488969Y-65935542D01*
X73488969Y-65935542D02*
X73519135Y-65994908D01*
X73519135Y-65994908D02*
X73551697Y-66052842D01*
X73551697Y-66052842D02*
X73586588Y-66109274D01*
X73586588Y-66109274D02*
X73623742Y-66164136D01*
X73623742Y-66164136D02*
X73663090Y-66217360D01*
X73663090Y-66217360D02*
X73704566Y-66268879D01*
X73704566Y-66268879D02*
X73748102Y-66318623D01*
X73748102Y-66318623D02*
X73793631Y-66366524D01*
X73793631Y-66366524D02*
X73841085Y-66412515D01*
X73841085Y-66412515D02*
X73890398Y-66456527D01*
X73890398Y-66456527D02*
X73941502Y-66498491D01*
X73941502Y-66498491D02*
X73994330Y-66538341D01*
X73994330Y-66538341D02*
X74048815Y-66576007D01*
X74048815Y-66576007D02*
X74104889Y-66611421D01*
X74104889Y-66611421D02*
X74162484Y-66644515D01*
X74162484Y-66644515D02*
X74221535Y-66675221D01*
X74221535Y-66675221D02*
X74281973Y-66703470D01*
X74281973Y-66703470D02*
X74343731Y-66729195D01*
X74343731Y-66729195D02*
X74406742Y-66752327D01*
X74406742Y-66752327D02*
X74470938Y-66772798D01*
X74470938Y-66772798D02*
X74536253Y-66790539D01*
X74536253Y-66790539D02*
X74602619Y-66805483D01*
X74602619Y-66805483D02*
X74669969Y-66817562D01*
X74669969Y-66817562D02*
X74738235Y-66826706D01*
X74738235Y-66826706D02*
X74827450Y-66834265D01*
X74827450Y-66834265D02*
X74915699Y-66836929D01*
X74915699Y-66836929D02*
X75002861Y-66834821D01*
X75002861Y-66834821D02*
X75088812Y-66828064D01*
X75088812Y-66828064D02*
X75173430Y-66816780D01*
X75173430Y-66816780D02*
X75256592Y-66801093D01*
X75256592Y-66801093D02*
X75338177Y-66781125D01*
X75338177Y-66781125D02*
X75418062Y-66757000D01*
X75418062Y-66757000D02*
X75496125Y-66728839D01*
X75496125Y-66728839D02*
X75572242Y-66696765D01*
X75572242Y-66696765D02*
X75646293Y-66660902D01*
X75646293Y-66660902D02*
X75718153Y-66621372D01*
X75718153Y-66621372D02*
X75787701Y-66578298D01*
X75787701Y-66578298D02*
X75854815Y-66531802D01*
X75854815Y-66531802D02*
X75919372Y-66482008D01*
X75919372Y-66482008D02*
X75981249Y-66429039D01*
X75981249Y-66429039D02*
X76040325Y-66373016D01*
X76040325Y-66373016D02*
X76096477Y-66314063D01*
X76096477Y-66314063D02*
X76149582Y-66252303D01*
X76149582Y-66252303D02*
X76199517Y-66187858D01*
X76199517Y-66187858D02*
X76246162Y-66120851D01*
X76246162Y-66120851D02*
X76289393Y-66051406D01*
X76289393Y-66051406D02*
X76329087Y-65979644D01*
X76329087Y-65979644D02*
X76365123Y-65905688D01*
X76365123Y-65905688D02*
X76397377Y-65829662D01*
X76397377Y-65829662D02*
X76425729Y-65751688D01*
X76425729Y-65751688D02*
X76450054Y-65671889D01*
X76450054Y-65671889D02*
X76470231Y-65590388D01*
X76470231Y-65590388D02*
X76486137Y-65507307D01*
X76486137Y-65507307D02*
X76497650Y-65422769D01*
X76497650Y-65422769D02*
X76504648Y-65336897D01*
X76504648Y-65336897D02*
X76507008Y-65249814D01*
X76507008Y-65249814D02*
X76504341Y-65157443D01*
X76504341Y-65157443D02*
X76496441Y-65066439D01*
X76496441Y-65066439D02*
X76483454Y-64976952D01*
X76483454Y-64976952D02*
X76465528Y-64889129D01*
X76465528Y-64889129D02*
X76442813Y-64803118D01*
X76442813Y-64803118D02*
X76415455Y-64719066D01*
X76415455Y-64719066D02*
X76383603Y-64637123D01*
X76383603Y-64637123D02*
X76347405Y-64557436D01*
X76347405Y-64557436D02*
X76307009Y-64480153D01*
X76307009Y-64480153D02*
X76262562Y-64405422D01*
X76262562Y-64405422D02*
X76214213Y-64333391D01*
X76214213Y-64333391D02*
X76162111Y-64264209D01*
X76162111Y-64264209D02*
X76106402Y-64198022D01*
X76106402Y-64198022D02*
X76047235Y-64134980D01*
X76047235Y-64134980D02*
X75984757Y-64075230D01*
X75984757Y-64075230D02*
X75919118Y-64018920D01*
X75919118Y-64018920D02*
X75904566Y-64006510D01*
X75904566Y-64006510D02*
X75890779Y-63993418D01*
X75890779Y-63993418D02*
X75877782Y-63979676D01*
X75877782Y-63979676D02*
X75865598Y-63965320D01*
X75865598Y-63965320D02*
X75854252Y-63950384D01*
X75854252Y-63950384D02*
X75843766Y-63934902D01*
X75843766Y-63934902D02*
X75834166Y-63918909D01*
X75834166Y-63918909D02*
X75825474Y-63902439D01*
X75825474Y-63902439D02*
X75817716Y-63885526D01*
X75817716Y-63885526D02*
X75810914Y-63868206D01*
X75810914Y-63868206D02*
X75805093Y-63850511D01*
X75805093Y-63850511D02*
X75800277Y-63832477D01*
X75800277Y-63832477D02*
X75796490Y-63814138D01*
X75796490Y-63814138D02*
X75793755Y-63795529D01*
X75793755Y-63795529D02*
X75792096Y-63776683D01*
X75792096Y-63776683D02*
X75791538Y-63757636D01*
X75791538Y-63757636D02*
X75792467Y-63731968D01*
X75792467Y-63731968D02*
X75795201Y-63707045D01*
X75795201Y-63707045D02*
X75799663Y-63682905D01*
X75799663Y-63682905D02*
X75805775Y-63659586D01*
X75805775Y-63659586D02*
X75813458Y-63637127D01*
X75813458Y-63637127D02*
X75822634Y-63615565D01*
X75822634Y-63615565D02*
X75833225Y-63594941D01*
X75833225Y-63594941D02*
X75845153Y-63575291D01*
X75845153Y-63575291D02*
X75858341Y-63556656D01*
X75858341Y-63556656D02*
X75872708Y-63539072D01*
X75872708Y-63539072D02*
X75888179Y-63522579D01*
X75888179Y-63522579D02*
X75904674Y-63507215D01*
X75904674Y-63507215D02*
X75922115Y-63493019D01*
X75922115Y-63493019D02*
X75940425Y-63480029D01*
X75940425Y-63480029D02*
X75959524Y-63468284D01*
X75959524Y-63468284D02*
X75979336Y-63457822D01*
X75979336Y-63457822D02*
X75999782Y-63448681D01*
X75999782Y-63448681D02*
X76020783Y-63440901D01*
X76020783Y-63440901D02*
X76042262Y-63434519D01*
X76042262Y-63434519D02*
X76064141Y-63429575D01*
X76064141Y-63429575D02*
X76086341Y-63426106D01*
X76086341Y-63426106D02*
X76108785Y-63424151D01*
X76108785Y-63424151D02*
X76131393Y-63423749D01*
X76131393Y-63423749D02*
X76154089Y-63424938D01*
X76154089Y-63424938D02*
X76176794Y-63427757D01*
X76176794Y-63427757D02*
X76199430Y-63432244D01*
X76199430Y-63432244D02*
X76221918Y-63438437D01*
X76221918Y-63438437D02*
X76244181Y-63446376D01*
X76244181Y-63446376D02*
X76266140Y-63456098D01*
X76266140Y-63456098D02*
X76287718Y-63467642D01*
X76287718Y-63467642D02*
X76308836Y-63481047D01*
X76308836Y-63481047D02*
X76329416Y-63496351D01*
X76329416Y-63496351D02*
X76423296Y-63576381D01*
X76423296Y-63576381D02*
X76512658Y-63661322D01*
X76512658Y-63661322D02*
X76597289Y-63750967D01*
X76597289Y-63750967D02*
X76676977Y-63845108D01*
X76676977Y-63845108D02*
X76751510Y-63943536D01*
X76751510Y-63943536D02*
X76820676Y-64046045D01*
X76820676Y-64046045D02*
X76884263Y-64152425D01*
X76884263Y-64152425D02*
X76942057Y-64262471D01*
X76942057Y-64262471D02*
X76993847Y-64375972D01*
X76993847Y-64375972D02*
X77039421Y-64492723D01*
X77039421Y-64492723D02*
X77078565Y-64612515D01*
X77078565Y-64612515D02*
X77111069Y-64735139D01*
X77111069Y-64735139D02*
X77136719Y-64860390D01*
X77136719Y-64860390D02*
X77155303Y-64988057D01*
X77155303Y-64988057D02*
X77166610Y-65117935D01*
X77166610Y-65117935D02*
X77170426Y-65249814D01*
X77170426Y-65249814D02*
X77167229Y-65370476D01*
X77167229Y-65370476D02*
X77157748Y-65489504D01*
X77157748Y-65489504D02*
X77142144Y-65606736D01*
X77142144Y-65606736D02*
X77120580Y-65722009D01*
X77120580Y-65722009D02*
X77093216Y-65835160D01*
X77093216Y-65835160D02*
X77060216Y-65946027D01*
X77060216Y-65946027D02*
X77021742Y-66054448D01*
X77021742Y-66054448D02*
X76977955Y-66160259D01*
X76977955Y-66160259D02*
X76929017Y-66263298D01*
X76929017Y-66263298D02*
X76875091Y-66363403D01*
X76875091Y-66363403D02*
X76816338Y-66460411D01*
X76816338Y-66460411D02*
X76752921Y-66554159D01*
X76752921Y-66554159D02*
X76685002Y-66644485D01*
X76685002Y-66644485D02*
X76612742Y-66731226D01*
X76612742Y-66731226D02*
X76536303Y-66814219D01*
X76536303Y-66814219D02*
X76455848Y-66893303D01*
X76455848Y-66893303D02*
X76371539Y-66968314D01*
X76371539Y-66968314D02*
X76283538Y-67039090D01*
X76283538Y-67039090D02*
X76192007Y-67105468D01*
X76192007Y-67105468D02*
X76097107Y-67167286D01*
X76097107Y-67167286D02*
X75999001Y-67224380D01*
X75999001Y-67224380D02*
X75897851Y-67276589D01*
X75897851Y-67276589D02*
X75793818Y-67323750D01*
X75793818Y-67323750D02*
X75687066Y-67365701D01*
X75687066Y-67365701D02*
X75577755Y-67402278D01*
X75577755Y-67402278D02*
X75466049Y-67433319D01*
X75466049Y-67433319D02*
X75352108Y-67458661D01*
X75352108Y-67458661D02*
X75236095Y-67478143D01*
X75236095Y-67478143D02*
X75118173Y-67491601D01*
X75118173Y-67491601D02*
X74998502Y-67498872D01*
X74998502Y-67498872D02*
X74877246Y-67499795D01*
X74877246Y-67499795D02*
X74754566Y-67494206D01*
X74754566Y-67494206D02*
X74653172Y-67484733D01*
X74653172Y-67484733D02*
X74553064Y-67470735D01*
X74553064Y-67470735D02*
X74454348Y-67452317D01*
X74454348Y-67452317D02*
X74357131Y-67429585D01*
X74357131Y-67429585D02*
X74261521Y-67402641D01*
X74261521Y-67402641D02*
X74167624Y-67371591D01*
X74167624Y-67371591D02*
X74075548Y-67336538D01*
X74075548Y-67336538D02*
X73985400Y-67297589D01*
X73985400Y-67297589D02*
X73897287Y-67254846D01*
X73897287Y-67254846D02*
X73811315Y-67208415D01*
X73811315Y-67208415D02*
X73727593Y-67158400D01*
X73727593Y-67158400D02*
X73646226Y-67104905D01*
X73646226Y-67104905D02*
X73567323Y-67048035D01*
X73567323Y-67048035D02*
X73490990Y-66987894D01*
X73490990Y-66987894D02*
X73417334Y-66924587D01*
X73417334Y-66924587D02*
X73346462Y-66858219D01*
X73346462Y-66858219D02*
X73278482Y-66788893D01*
X73278482Y-66788893D02*
X73213501Y-66716714D01*
X73213501Y-66716714D02*
X73151625Y-66641787D01*
X73151625Y-66641787D02*
X73092962Y-66564216D01*
X73092962Y-66564216D02*
X73037619Y-66484106D01*
X73037619Y-66484106D02*
X72985703Y-66401560D01*
X72985703Y-66401560D02*
X72937321Y-66316685D01*
X72937321Y-66316685D02*
X72892580Y-66229583D01*
X72892580Y-66229583D02*
X72851587Y-66140360D01*
X72851587Y-66140360D02*
X72814449Y-66049119D01*
X72814449Y-66049119D02*
X72781273Y-65955967D01*
X72781273Y-65955967D02*
X72752168Y-65861006D01*
X72752168Y-65861006D02*
X72727238Y-65764341D01*
X72727238Y-65764341D02*
X72706592Y-65666077D01*
X72706592Y-65666077D02*
X72690337Y-65566319D01*
X72690337Y-65566319D02*
X72678580Y-65465170D01*
X72678580Y-65465170D02*
X72678579Y-65465170D01*
X72678579Y-65465170D02*
X72678579Y-65465170D01*
G36*
X76154089Y-63424938D02*
G01*
X76176794Y-63427757D01*
X76199430Y-63432244D01*
X76221918Y-63438437D01*
X76244181Y-63446376D01*
X76266140Y-63456098D01*
X76287718Y-63467642D01*
X76308836Y-63481047D01*
X76329416Y-63496351D01*
X76423296Y-63576381D01*
X76512658Y-63661322D01*
X76597289Y-63750967D01*
X76676977Y-63845108D01*
X76751510Y-63943536D01*
X76820676Y-64046045D01*
X76884263Y-64152425D01*
X76942057Y-64262471D01*
X76993847Y-64375972D01*
X77039421Y-64492723D01*
X77078565Y-64612515D01*
X77111069Y-64735139D01*
X77136719Y-64860390D01*
X77155303Y-64988057D01*
X77166610Y-65117935D01*
X77170426Y-65249814D01*
X77167229Y-65370476D01*
X77157748Y-65489504D01*
X77142144Y-65606736D01*
X77120580Y-65722009D01*
X77093216Y-65835160D01*
X77060216Y-65946027D01*
X77021742Y-66054448D01*
X76977955Y-66160259D01*
X76929017Y-66263298D01*
X76875091Y-66363403D01*
X76816338Y-66460411D01*
X76752921Y-66554159D01*
X76685002Y-66644485D01*
X76612742Y-66731226D01*
X76536303Y-66814219D01*
X76455848Y-66893303D01*
X76371539Y-66968314D01*
X76283538Y-67039090D01*
X76192007Y-67105468D01*
X76097107Y-67167286D01*
X75999001Y-67224380D01*
X75897851Y-67276589D01*
X75793818Y-67323750D01*
X75687066Y-67365701D01*
X75577755Y-67402278D01*
X75466049Y-67433319D01*
X75352108Y-67458661D01*
X75236095Y-67478143D01*
X75118173Y-67491601D01*
X74998502Y-67498872D01*
X74877246Y-67499795D01*
X74754566Y-67494206D01*
X74653172Y-67484733D01*
X74553064Y-67470735D01*
X74454348Y-67452317D01*
X74357131Y-67429585D01*
X74261521Y-67402641D01*
X74167624Y-67371591D01*
X74075548Y-67336538D01*
X73985400Y-67297589D01*
X73897287Y-67254846D01*
X73811315Y-67208415D01*
X73727593Y-67158400D01*
X73646226Y-67104905D01*
X73567323Y-67048035D01*
X73490990Y-66987894D01*
X73417334Y-66924587D01*
X73346462Y-66858219D01*
X73278482Y-66788893D01*
X73213501Y-66716714D01*
X73151625Y-66641787D01*
X73092962Y-66564216D01*
X73037619Y-66484106D01*
X72985703Y-66401560D01*
X72937321Y-66316685D01*
X72892580Y-66229583D01*
X72851587Y-66140360D01*
X72814449Y-66049119D01*
X72781273Y-65955967D01*
X72752168Y-65861006D01*
X72727238Y-65764341D01*
X72706592Y-65666077D01*
X72690337Y-65566319D01*
X72678580Y-65465170D01*
X72678579Y-65465170D01*
X72669575Y-65317776D01*
X72669934Y-65172403D01*
X72679380Y-65029323D01*
X72697637Y-64888810D01*
X72724427Y-64751138D01*
X72759475Y-64616580D01*
X72802504Y-64485409D01*
X72853237Y-64357901D01*
X72911397Y-64234327D01*
X72976708Y-64114962D01*
X73048894Y-64000079D01*
X73127678Y-63889952D01*
X73212782Y-63784855D01*
X73303932Y-63685060D01*
X73400849Y-63590843D01*
X73503258Y-63502475D01*
X73524038Y-63486786D01*
X73545373Y-63472991D01*
X73567182Y-63461054D01*
X73589387Y-63450939D01*
X73611906Y-63442607D01*
X73634662Y-63436024D01*
X73657574Y-63431151D01*
X73680563Y-63427952D01*
X73703548Y-63426390D01*
X73726451Y-63426429D01*
X73749192Y-63428031D01*
X73771691Y-63431160D01*
X73793868Y-63435778D01*
X73815645Y-63441850D01*
X73836941Y-63449338D01*
X73857676Y-63458205D01*
X73877772Y-63468414D01*
X73897148Y-63479930D01*
X73915725Y-63492714D01*
X73933423Y-63506731D01*
X73950163Y-63521943D01*
X73965865Y-63538313D01*
X73980449Y-63555806D01*
X73993836Y-63574382D01*
X74005946Y-63594008D01*
X74016700Y-63614644D01*
X74026018Y-63636254D01*
X74033821Y-63658803D01*
X74040028Y-63682252D01*
X74044560Y-63706565D01*
X74047337Y-63731705D01*
X74048281Y-63757636D01*
X74047711Y-63776863D01*
X74046020Y-63795866D01*
X74043235Y-63814612D01*
X74039382Y-63833067D01*
X74034489Y-63851200D01*
X74028582Y-63868977D01*
X74021688Y-63886366D01*
X74013834Y-63903332D01*
X74005048Y-63919844D01*
X73995355Y-63935869D01*
X73984783Y-63951374D01*
X73973359Y-63966325D01*
X73961110Y-63980690D01*
X73948063Y-63994436D01*
X73934244Y-64007531D01*
X73919680Y-64019941D01*
X73847125Y-64082761D01*
X73778481Y-64149763D01*
X73713951Y-64220752D01*
X73653739Y-64295530D01*
X73598048Y-64373902D01*
X73547082Y-64455673D01*
X73501043Y-64540646D01*
X73460136Y-64628626D01*
X73424563Y-64719417D01*
X73394528Y-64812822D01*
X73370234Y-64908646D01*
X73351884Y-65006694D01*
X73339682Y-65106769D01*
X73333831Y-65208675D01*
X73334535Y-65312218D01*
X73337408Y-65364541D01*
X73341997Y-65417199D01*
X73350567Y-65485576D01*
X73362073Y-65553065D01*
X73376446Y-65619598D01*
X73393619Y-65685108D01*
X73413525Y-65749525D01*
X73436097Y-65812782D01*
X73461267Y-65874810D01*
X73488969Y-65935542D01*
X73519135Y-65994908D01*
X73551697Y-66052842D01*
X73586588Y-66109274D01*
X73623742Y-66164136D01*
X73663090Y-66217360D01*
X73704566Y-66268879D01*
X73748102Y-66318623D01*
X73793631Y-66366524D01*
X73841085Y-66412515D01*
X73890398Y-66456527D01*
X73941502Y-66498491D01*
X73994330Y-66538341D01*
X74048815Y-66576007D01*
X74104889Y-66611421D01*
X74162484Y-66644515D01*
X74221535Y-66675221D01*
X74281973Y-66703470D01*
X74343731Y-66729195D01*
X74406742Y-66752327D01*
X74470938Y-66772798D01*
X74536253Y-66790539D01*
X74602619Y-66805483D01*
X74669969Y-66817562D01*
X74738235Y-66826706D01*
X74827450Y-66834265D01*
X74915699Y-66836929D01*
X75002861Y-66834821D01*
X75088812Y-66828064D01*
X75173430Y-66816780D01*
X75256592Y-66801093D01*
X75338177Y-66781125D01*
X75418062Y-66757000D01*
X75496125Y-66728839D01*
X75572242Y-66696765D01*
X75646293Y-66660902D01*
X75718153Y-66621372D01*
X75787701Y-66578298D01*
X75854815Y-66531802D01*
X75919372Y-66482008D01*
X75981249Y-66429039D01*
X76040325Y-66373016D01*
X76096477Y-66314063D01*
X76149582Y-66252303D01*
X76199517Y-66187858D01*
X76246162Y-66120851D01*
X76289393Y-66051406D01*
X76329087Y-65979644D01*
X76365123Y-65905688D01*
X76397377Y-65829662D01*
X76425729Y-65751688D01*
X76450054Y-65671889D01*
X76470231Y-65590388D01*
X76486137Y-65507307D01*
X76497650Y-65422769D01*
X76504648Y-65336897D01*
X76507008Y-65249814D01*
X76504341Y-65157443D01*
X76496441Y-65066439D01*
X76483454Y-64976952D01*
X76465528Y-64889129D01*
X76442813Y-64803118D01*
X76415455Y-64719066D01*
X76383603Y-64637123D01*
X76347405Y-64557436D01*
X76307009Y-64480153D01*
X76262562Y-64405422D01*
X76214213Y-64333391D01*
X76162111Y-64264209D01*
X76106402Y-64198022D01*
X76047235Y-64134980D01*
X75984757Y-64075230D01*
X75919118Y-64018920D01*
X75904566Y-64006510D01*
X75890779Y-63993418D01*
X75877782Y-63979676D01*
X75865598Y-63965320D01*
X75854252Y-63950384D01*
X75843766Y-63934902D01*
X75834166Y-63918909D01*
X75825474Y-63902439D01*
X75817716Y-63885526D01*
X75810914Y-63868206D01*
X75805093Y-63850511D01*
X75800277Y-63832477D01*
X75796490Y-63814138D01*
X75793755Y-63795529D01*
X75792096Y-63776683D01*
X75791538Y-63757636D01*
X75792467Y-63731968D01*
X75795201Y-63707045D01*
X75799663Y-63682905D01*
X75805775Y-63659586D01*
X75813458Y-63637127D01*
X75822634Y-63615565D01*
X75833225Y-63594941D01*
X75845153Y-63575291D01*
X75858341Y-63556656D01*
X75872708Y-63539072D01*
X75888179Y-63522579D01*
X75904674Y-63507215D01*
X75922115Y-63493019D01*
X75940425Y-63480029D01*
X75959524Y-63468284D01*
X75979336Y-63457822D01*
X75999782Y-63448681D01*
X76020783Y-63440901D01*
X76042262Y-63434519D01*
X76064141Y-63429575D01*
X76086341Y-63426106D01*
X76108785Y-63424151D01*
X76131393Y-63423749D01*
X76154089Y-63424938D01*
G37*
X76154089Y-63424938D02*
X76176794Y-63427757D01*
X76199430Y-63432244D01*
X76221918Y-63438437D01*
X76244181Y-63446376D01*
X76266140Y-63456098D01*
X76287718Y-63467642D01*
X76308836Y-63481047D01*
X76329416Y-63496351D01*
X76423296Y-63576381D01*
X76512658Y-63661322D01*
X76597289Y-63750967D01*
X76676977Y-63845108D01*
X76751510Y-63943536D01*
X76820676Y-64046045D01*
X76884263Y-64152425D01*
X76942057Y-64262471D01*
X76993847Y-64375972D01*
X77039421Y-64492723D01*
X77078565Y-64612515D01*
X77111069Y-64735139D01*
X77136719Y-64860390D01*
X77155303Y-64988057D01*
X77166610Y-65117935D01*
X77170426Y-65249814D01*
X77167229Y-65370476D01*
X77157748Y-65489504D01*
X77142144Y-65606736D01*
X77120580Y-65722009D01*
X77093216Y-65835160D01*
X77060216Y-65946027D01*
X77021742Y-66054448D01*
X76977955Y-66160259D01*
X76929017Y-66263298D01*
X76875091Y-66363403D01*
X76816338Y-66460411D01*
X76752921Y-66554159D01*
X76685002Y-66644485D01*
X76612742Y-66731226D01*
X76536303Y-66814219D01*
X76455848Y-66893303D01*
X76371539Y-66968314D01*
X76283538Y-67039090D01*
X76192007Y-67105468D01*
X76097107Y-67167286D01*
X75999001Y-67224380D01*
X75897851Y-67276589D01*
X75793818Y-67323750D01*
X75687066Y-67365701D01*
X75577755Y-67402278D01*
X75466049Y-67433319D01*
X75352108Y-67458661D01*
X75236095Y-67478143D01*
X75118173Y-67491601D01*
X74998502Y-67498872D01*
X74877246Y-67499795D01*
X74754566Y-67494206D01*
X74653172Y-67484733D01*
X74553064Y-67470735D01*
X74454348Y-67452317D01*
X74357131Y-67429585D01*
X74261521Y-67402641D01*
X74167624Y-67371591D01*
X74075548Y-67336538D01*
X73985400Y-67297589D01*
X73897287Y-67254846D01*
X73811315Y-67208415D01*
X73727593Y-67158400D01*
X73646226Y-67104905D01*
X73567323Y-67048035D01*
X73490990Y-66987894D01*
X73417334Y-66924587D01*
X73346462Y-66858219D01*
X73278482Y-66788893D01*
X73213501Y-66716714D01*
X73151625Y-66641787D01*
X73092962Y-66564216D01*
X73037619Y-66484106D01*
X72985703Y-66401560D01*
X72937321Y-66316685D01*
X72892580Y-66229583D01*
X72851587Y-66140360D01*
X72814449Y-66049119D01*
X72781273Y-65955967D01*
X72752168Y-65861006D01*
X72727238Y-65764341D01*
X72706592Y-65666077D01*
X72690337Y-65566319D01*
X72678580Y-65465170D01*
X72678579Y-65465170D01*
X72669575Y-65317776D01*
X72669934Y-65172403D01*
X72679380Y-65029323D01*
X72697637Y-64888810D01*
X72724427Y-64751138D01*
X72759475Y-64616580D01*
X72802504Y-64485409D01*
X72853237Y-64357901D01*
X72911397Y-64234327D01*
X72976708Y-64114962D01*
X73048894Y-64000079D01*
X73127678Y-63889952D01*
X73212782Y-63784855D01*
X73303932Y-63685060D01*
X73400849Y-63590843D01*
X73503258Y-63502475D01*
X73524038Y-63486786D01*
X73545373Y-63472991D01*
X73567182Y-63461054D01*
X73589387Y-63450939D01*
X73611906Y-63442607D01*
X73634662Y-63436024D01*
X73657574Y-63431151D01*
X73680563Y-63427952D01*
X73703548Y-63426390D01*
X73726451Y-63426429D01*
X73749192Y-63428031D01*
X73771691Y-63431160D01*
X73793868Y-63435778D01*
X73815645Y-63441850D01*
X73836941Y-63449338D01*
X73857676Y-63458205D01*
X73877772Y-63468414D01*
X73897148Y-63479930D01*
X73915725Y-63492714D01*
X73933423Y-63506731D01*
X73950163Y-63521943D01*
X73965865Y-63538313D01*
X73980449Y-63555806D01*
X73993836Y-63574382D01*
X74005946Y-63594008D01*
X74016700Y-63614644D01*
X74026018Y-63636254D01*
X74033821Y-63658803D01*
X74040028Y-63682252D01*
X74044560Y-63706565D01*
X74047337Y-63731705D01*
X74048281Y-63757636D01*
X74047711Y-63776863D01*
X74046020Y-63795866D01*
X74043235Y-63814612D01*
X74039382Y-63833067D01*
X74034489Y-63851200D01*
X74028582Y-63868977D01*
X74021688Y-63886366D01*
X74013834Y-63903332D01*
X74005048Y-63919844D01*
X73995355Y-63935869D01*
X73984783Y-63951374D01*
X73973359Y-63966325D01*
X73961110Y-63980690D01*
X73948063Y-63994436D01*
X73934244Y-64007531D01*
X73919680Y-64019941D01*
X73847125Y-64082761D01*
X73778481Y-64149763D01*
X73713951Y-64220752D01*
X73653739Y-64295530D01*
X73598048Y-64373902D01*
X73547082Y-64455673D01*
X73501043Y-64540646D01*
X73460136Y-64628626D01*
X73424563Y-64719417D01*
X73394528Y-64812822D01*
X73370234Y-64908646D01*
X73351884Y-65006694D01*
X73339682Y-65106769D01*
X73333831Y-65208675D01*
X73334535Y-65312218D01*
X73337408Y-65364541D01*
X73341997Y-65417199D01*
X73350567Y-65485576D01*
X73362073Y-65553065D01*
X73376446Y-65619598D01*
X73393619Y-65685108D01*
X73413525Y-65749525D01*
X73436097Y-65812782D01*
X73461267Y-65874810D01*
X73488969Y-65935542D01*
X73519135Y-65994908D01*
X73551697Y-66052842D01*
X73586588Y-66109274D01*
X73623742Y-66164136D01*
X73663090Y-66217360D01*
X73704566Y-66268879D01*
X73748102Y-66318623D01*
X73793631Y-66366524D01*
X73841085Y-66412515D01*
X73890398Y-66456527D01*
X73941502Y-66498491D01*
X73994330Y-66538341D01*
X74048815Y-66576007D01*
X74104889Y-66611421D01*
X74162484Y-66644515D01*
X74221535Y-66675221D01*
X74281973Y-66703470D01*
X74343731Y-66729195D01*
X74406742Y-66752327D01*
X74470938Y-66772798D01*
X74536253Y-66790539D01*
X74602619Y-66805483D01*
X74669969Y-66817562D01*
X74738235Y-66826706D01*
X74827450Y-66834265D01*
X74915699Y-66836929D01*
X75002861Y-66834821D01*
X75088812Y-66828064D01*
X75173430Y-66816780D01*
X75256592Y-66801093D01*
X75338177Y-66781125D01*
X75418062Y-66757000D01*
X75496125Y-66728839D01*
X75572242Y-66696765D01*
X75646293Y-66660902D01*
X75718153Y-66621372D01*
X75787701Y-66578298D01*
X75854815Y-66531802D01*
X75919372Y-66482008D01*
X75981249Y-66429039D01*
X76040325Y-66373016D01*
X76096477Y-66314063D01*
X76149582Y-66252303D01*
X76199517Y-66187858D01*
X76246162Y-66120851D01*
X76289393Y-66051406D01*
X76329087Y-65979644D01*
X76365123Y-65905688D01*
X76397377Y-65829662D01*
X76425729Y-65751688D01*
X76450054Y-65671889D01*
X76470231Y-65590388D01*
X76486137Y-65507307D01*
X76497650Y-65422769D01*
X76504648Y-65336897D01*
X76507008Y-65249814D01*
X76504341Y-65157443D01*
X76496441Y-65066439D01*
X76483454Y-64976952D01*
X76465528Y-64889129D01*
X76442813Y-64803118D01*
X76415455Y-64719066D01*
X76383603Y-64637123D01*
X76347405Y-64557436D01*
X76307009Y-64480153D01*
X76262562Y-64405422D01*
X76214213Y-64333391D01*
X76162111Y-64264209D01*
X76106402Y-64198022D01*
X76047235Y-64134980D01*
X75984757Y-64075230D01*
X75919118Y-64018920D01*
X75904566Y-64006510D01*
X75890779Y-63993418D01*
X75877782Y-63979676D01*
X75865598Y-63965320D01*
X75854252Y-63950384D01*
X75843766Y-63934902D01*
X75834166Y-63918909D01*
X75825474Y-63902439D01*
X75817716Y-63885526D01*
X75810914Y-63868206D01*
X75805093Y-63850511D01*
X75800277Y-63832477D01*
X75796490Y-63814138D01*
X75793755Y-63795529D01*
X75792096Y-63776683D01*
X75791538Y-63757636D01*
X75792467Y-63731968D01*
X75795201Y-63707045D01*
X75799663Y-63682905D01*
X75805775Y-63659586D01*
X75813458Y-63637127D01*
X75822634Y-63615565D01*
X75833225Y-63594941D01*
X75845153Y-63575291D01*
X75858341Y-63556656D01*
X75872708Y-63539072D01*
X75888179Y-63522579D01*
X75904674Y-63507215D01*
X75922115Y-63493019D01*
X75940425Y-63480029D01*
X75959524Y-63468284D01*
X75979336Y-63457822D01*
X75999782Y-63448681D01*
X76020783Y-63440901D01*
X76042262Y-63434519D01*
X76064141Y-63429575D01*
X76086341Y-63426106D01*
X76108785Y-63424151D01*
X76131393Y-63423749D01*
X76154089Y-63424938D01*
D10*
X75321710Y-123819681D02*
X75484200Y-123843266D01*
X74556261Y-123830368D02*
X74638292Y-123819681D01*
X73417710Y-125129957D02*
X73387351Y-125086491D01*
D11*
X76405588Y-128371860D02*
X76261293Y-128457572D01*
D10*
X73387351Y-124428285D02*
X73417710Y-124384819D01*
X76641087Y-124564487D02*
X76655998Y-124611622D01*
X74638292Y-123819681D02*
X74721788Y-123811263D01*
X74980001Y-123800235D02*
X75153359Y-123805176D01*
D14*
X92750000Y-129200000D02*
X87350000Y-126200000D01*
X87350000Y-126200000D02*
X92750000Y-123400000D01*
X92750000Y-123400000D02*
X92750000Y-129200000D01*
G36*
X92750000Y-129200000D02*
G01*
X87350000Y-126200000D01*
X92750000Y-123400000D01*
X92750000Y-129200000D01*
G37*
X92750000Y-129200000D02*
X87350000Y-126200000D01*
X92750000Y-123400000D01*
X92750000Y-129200000D01*
D10*
X76666781Y-124659524D02*
X76673328Y-124708133D01*
X75067252Y-125713296D02*
X74980001Y-125714541D01*
X74475801Y-125671510D02*
X74320023Y-125639324D01*
X76675534Y-124757388D02*
X76675534Y-124757388D01*
X76385964Y-125292543D02*
X76338692Y-125330070D01*
X74721788Y-123811263D02*
X74806642Y-123805176D01*
X74475801Y-123843266D02*
X74556261Y-123830368D01*
X73529935Y-124261067D02*
X73574038Y-124222233D01*
D11*
X74594028Y-128768406D02*
X74440559Y-128738330D01*
X76675542Y-124730029D02*
X76675542Y-128173587D01*
D10*
X74032012Y-123963700D02*
X74100805Y-123938804D01*
X74892749Y-123801480D02*
X74980001Y-123800235D01*
D11*
X75673076Y-128702315D02*
X75554767Y-128733166D01*
D15*
%TO.C,H1*%
X164000000Y-146000000D03*
%TD*%
%TO.C,H4*%
X70000000Y-58000000D03*
%TD*%
D16*
%TO.C,SW2*%
X80000000Y-100000000D03*
D17*
X69840000Y-100000000D03*
X80000000Y-107620000D03*
X69840000Y-107620000D03*
%TD*%
D15*
%TO.C,H3*%
X70000000Y-146000000D03*
%TD*%
D18*
%TO.C,D1*%
X74062500Y-121750000D03*
X75937500Y-121750000D03*
%TD*%
D16*
%TO.C,SW4*%
X155000000Y-122500000D03*
D17*
X144840000Y-122500000D03*
X155000000Y-130120000D03*
X144840000Y-130120000D03*
%TD*%
D16*
%TO.C,SW1*%
X80000000Y-70000000D03*
D17*
X69840000Y-70000000D03*
X80000000Y-77620000D03*
X69840000Y-77620000D03*
%TD*%
D15*
%TO.C,H2*%
X164000000Y-58000000D03*
%TD*%
D16*
%TO.C,SW3*%
X105000000Y-122500000D03*
D17*
X94840000Y-122500000D03*
X105000000Y-130120000D03*
X94840000Y-130120000D03*
%TD*%
D19*
%TO.C,J2*%
X149125000Y-65000000D03*
D20*
X146585000Y-65000000D03*
X144045000Y-65000000D03*
X141505000Y-65000000D03*
X138965000Y-65000000D03*
X136425000Y-65000000D03*
X133885000Y-65000000D03*
X131345000Y-65000000D03*
X128805000Y-65000000D03*
X126265000Y-65000000D03*
X123725000Y-65000000D03*
X121185000Y-65000000D03*
X118645000Y-65000000D03*
X116105000Y-65000000D03*
X113565000Y-65000000D03*
X111025000Y-65000000D03*
X108485000Y-65000000D03*
X105945000Y-65000000D03*
X103405000Y-65000000D03*
X100865000Y-65000000D03*
%TD*%
D21*
%TO.C,J1*%
X137600000Y-126800000D03*
D22*
X135060000Y-126800000D03*
X132520000Y-126800000D03*
X129980000Y-126800000D03*
X127440000Y-126800000D03*
X124900000Y-126800000D03*
X122360000Y-126800000D03*
X119820000Y-126800000D03*
X117280000Y-126800000D03*
X114740000Y-126800000D03*
X112200000Y-126800000D03*
%TD*%
M02*
